<svg xmlns="http://www.w3.org/2000/svg" xmlns:xlink="http://www.w3.org/1999/xlink" width="180" height="100" viewBox="0 0 180 100">
    <defs>
        <path id="a" d="M.346.309h11.263v13.313H.346z"/>
    </defs>
    <g fill="none" fill-rule="evenodd">
        <path fill="#585858" d="M79.043 52.96c-.821-.613-2.02-.935-3.626-.935H70.82v5.94c0 .293.147.44.467.44h4.658c1.169 0 2.137-.236 2.894-.704.968-.587 1.461-1.375 1.461-2.369 0-.878-.437-1.667-1.257-2.371m-.352-8.309c-.405-.32-.989-.499-1.727-.499h-5.677c-.32 0-.467.18-.467.47v5.296h4.597c1.113 0 2.078-.234 2.869-.76.876-.586 1.343-1.436 1.343-2.517 0-.819-.323-1.495-.938-1.99m1.846 14.396c-1.257.965-3.071 1.432-5.414 1.432h-5.18c-.82 0-1.227-.408-1.227-1.227V43.306c0-.819.406-1.228 1.228-1.228h6.467c1.524 0 2.751.382 3.685 1.084 1.054.875 1.611 2.046 1.611 3.48 0 2.106-.996 3.54-2.928 4.3 1.113.29 1.9.76 2.431 1.377.758.936 1.168 1.96 1.168 3.072 0 1.49-.61 2.722-1.841 3.657M86.978 45.779c-.294.292-.643.41-1.024.41-.41 0-.76-.118-1.05-.41a1.427 1.427 0 0 1-.44-1.052c0-.41.146-.763.44-1.053a1.512 1.512 0 0 1 2.074 0c.29.29.44.642.44 1.053 0 .409-.15.762-.44 1.052M85.954 60.528c-.704 0-1.05-.408-1.05-1.258V48.807c0-.82.346-1.23 1.05-1.23.674 0 1.024.41 1.024 1.23V59.27c0 .85-.35 1.258-1.024 1.258M92.324 45.779c-.294.292-.644.41-1.02.41-.41 0-.764-.118-1.058-.41a1.44 1.44 0 0 1-.437-1.052c0-.41.147-.763.437-1.053a1.512 1.512 0 0 1 2.079 0c.297.29.439.642.439 1.053 0 .409-.142.762-.44 1.052M91.303 60.528c-.704 0-1.057-.408-1.057-1.258V48.807c0-.82.353-1.23 1.057-1.23.67 0 1.021.41 1.021 1.23V59.27c0 .85-.351 1.258-1.02 1.258M104.763 60.504h-6.765c-.872 0-1.283-.408-1.283-1.227V43.301c0-.789.32-1.2 1.02-1.2.708 0 1.058.411 1.058 1.2v14.688c0 .292.147.439.44.439h5.53c.822 0 1.232.35 1.232 1.052 0 .702-.41 1.024-1.232 1.024M116.804 54.126h-1.785c-3.627 0-5.443.878-5.443 2.576 0 .526.207.907.615 1.2.406.291.877.44 1.438.44.932 0 1.897-.264 2.92-.793.998-.495 1.756-1.14 2.255-1.899v-1.524zm1.025 6.378c-.704 0-1.025-.406-1.025-1.227v-1.052c-.703.64-1.524 1.14-2.461 1.551-.96.437-1.872.642-2.714.642-1.172 0-2.139-.264-2.903-.85-.903-.641-1.343-1.609-1.343-2.866 0-1.582.737-2.778 2.25-3.63 1.205-.643 2.665-.995 4.42-.995h2.751c-.12-1.929-1.23-2.897-3.335-2.897-.73 0-1.435.149-2.108.41-.764.294-1.318.703-1.668 1.232-.233.378-.47.554-.674.554-.791 0-1.17-.38-1.17-1.198 0-.294.18-.644.587-1.082 1.198-1.318 2.868-1.992 5.033-1.992 1.927 0 3.309.527 4.183 1.523.79.992 1.196 2.106 1.196 3.363v7.287c0 .82-.346 1.227-1.02 1.227zM130.127 50.613c-.765-.877-1.7-1.314-2.868-1.314-1.317 0-2.342.406-3.102 1.227-.764.821-1.137 1.903-1.137 3.219 0 1.288.373 2.4 1.167 3.307.761.938 1.788 1.376 3.072 1.376 1.198 0 2.194-.47 2.956-1.434.702-.878 1.049-1.961 1.049-3.25 0-1.198-.38-2.25-1.137-3.131m1.608 7.815c-1.228 1.404-2.726 2.076-4.476 2.076-1.99 0-3.422-.732-4.24-2.225v.994c0 .82-.353 1.231-1.057 1.231s-1.02-.411-1.02-1.23V43.175c0-.788.316-1.199 1.02-1.199s1.058.41 1.058 1.2v6.151c1.05-1.406 2.45-2.137 4.239-2.137 1.75 0 3.248.643 4.446 1.903 1.175 1.285 1.788 2.838 1.788 4.65 0 1.815-.59 3.366-1.758 4.684"/>
        <g transform="translate(134.235 46.882)">
            <mask id="b" fill="#fff">
                <use xlink:href="#a"/>
            </mask>
            <path fill="#585858" d="M9.769 12.831c-1.029.526-2.285.791-3.75.791-1.552 0-2.895-.383-4.005-1.203C.899 11.631.346 10.872.346 10.14.346 9.375.756 9 1.57 9c.236 0 .473.174.702.525.825 1.348 2.054 2.02 3.665 2.02 2.276 0 3.447-.527 3.447-1.58 0-.528-.523-1.055-1.55-1.522a50.616 50.616 0 0 0-2.368-.76C4 7.27 2.95 6.86 2.36 6.512 1.193 5.866.639 5.018.639 3.966c0-1.2.498-2.138 1.548-2.783C3.097.603 4.326.31 5.906.31c1.05 0 2.108.293 3.22.818 1.285.646 1.957 1.434 1.957 2.37 0 .76-.408 1.142-1.172 1.142-.263 0-.556-.293-.877-.88-.587-.993-1.581-1.493-3.016-1.493-2.103 0-3.154.586-3.154 1.7 0 .38.286.702.934.963.236.12.998.354 2.308.733 1.672.527 2.846.965 3.542 1.376 1.29.79 1.961 1.756 1.961 2.926 0 1.258-.614 2.221-1.84 2.867" mask="url(#b)"/>
        </g>
        <path fill="#585858" d="M49.341 37.21a8.119 8.119 0 0 0-3.857 6.59c-.002-.001-.004-.003-.008-.003-.018 1.013.139 2.097.355 2.793.714 2.335.637 4.262-.223 5.727a4.626 4.626 0 0 1-1.004 1.187 3.388 3.388 0 0 1-.695.586 3.392 3.392 0 0 1-4.667-1.106 3.394 3.394 0 0 1 1.107-4.667 3.373 3.373 0 0 1 1.747-.492l-.004-.013h2.168c.885-.162.736-1.007.736-1.007-.251-.835-.424-2.15-.366-3.33a8.124 8.124 0 0 0-9.417 11.995c2.163 3.512 6.57 4.79 10.239 3.143 2.3-1.089 3.968-3.292 4.522-5.8v-.04h.01a8.219 8.219 0 0 0 .048-3.323l.014-.001a7.278 7.278 0 0 0-.186-.791c-.754-2.452-.697-4.425.166-5.865.943-1.573 2.5-1.892 2.565-1.906l.004.018a3.384 3.384 0 0 1 3.897 1.444 3.391 3.391 0 0 1-1.107 4.666 3.358 3.358 0 0 1-1.73.493v.012h-2.15c-.858.053-.871.602-.84.815l.016.07c.271.878.449 2.262.357 3.497.038.25.21.804 1.04.845v.026h1.26v.005c.27-.003.54.023.812.087a3.387 3.387 0 0 1 2.512 4.082 3.386 3.386 0 0 1-4.08 2.517 3.394 3.394 0 0 1-2.602-3.198h-.006v-.957c-.895 1.735-2.314 3.174-4.068 4.031.977 2.294 2.975 4.113 5.583 4.732a8.129 8.129 0 0 0 9.786-6.031 8.13 8.13 0 0 0-2.34-7.788c2.953-2.564 3.709-6.954 1.59-10.389A8.124 8.124 0 0 0 53.596 36c-1.455 0-2.927.39-4.256 1.21"/>
    </g>
</svg>
