<svg xmlns="http://www.w3.org/2000/svg" width="180" height="100" viewBox="0 0 180 100">
    <g fill="#585858" fill-rule="nonzero">
        <path d="M125.447 49.732c.45.092.852.138 1.445.138 2.344 0 3.883-1.441 3.883-3.272 0-1.624-1.207-2.219-2.77-2.219-.687 0-1.208.046-1.516.138l-1.042 5.215zm-1.303-7.137c.971-.23 2.416-.366 3.86-.366 1.469 0 3.055.297 4.074 1.098.947.686 1.468 1.693 1.468 3.065 0 1.83-.9 3.295-2.036 4.187-1.28.984-3.103 1.464-4.998 1.464-.568 0-1.065-.069-1.491-.114l-1.137 5.833h-2.724l2.984-15.167zM132.386 57.763s1.8-10.135 1.942-11.142h2.583c-.16.75-.333 1.533-.452 2.357h.071c.782-1.51 2.037-2.609 3.624-2.609.19 0 .402.023.592.046l-.545 2.608a3.372 3.372 0 0 0-.52-.045c-1.966 0-3.222 1.921-3.671 4.3l-.877 4.485h-2.747zM142.451 53.347c0 1.533.853 2.608 2.25 2.608 2.06 0 3.433-2.745 3.433-4.964 0-1.144-.52-2.563-2.202-2.563-2.202 0-3.48 2.837-3.48 4.92M151 50.99c0 3.775-2.747 7.023-6.678 7.023-2.913 0-4.713-1.944-4.713-4.598 0-3.775 2.724-7.047 6.655-7.047 3.102 0 4.736 2.151 4.736 4.622M87.375 48.474h1.136c1.871 0 3.15-.778 3.15-2.082 0-1.12-.947-1.601-2.25-1.601-.592 0-1.066.046-1.326.114l-.71 3.57zM86 55.224c.402.045.805.068 1.302.068 1.848 0 3.529-.71 3.529-2.425 0-1.533-1.326-1.99-2.913-1.99h-1.065L86 55.222zm-.853-12.63a24.078 24.078 0 0 1 4.192-.365c1.658 0 2.89.205 3.955.823 1.066.526 1.847 1.51 1.847 2.814 0 1.945-1.492 3.18-3.22 3.66v.07c1.539.457 2.51 1.67 2.51 3.362 0 1.647-.924 2.86-2.18 3.66-1.349.87-3.362 1.259-6.014 1.259-1.8 0-3.245-.137-4.026-.297l2.936-14.986zM99.547 45.18c-.923 0-1.634-.618-1.634-1.602.024-1.12.924-1.876 1.966-1.876.994 0 1.705.641 1.705 1.625 0 1.166-.924 1.853-2.013 1.853h-.024zm-4.31 12.583l2.203-11.188h3.41l-2.203 11.188h-3.41zM107.457 43.533l-.592 3.042h2.463l-.497 2.494h-2.463l-.782 3.798c-.094.435-.19 1.03-.19 1.418 0 .55.238.938.972.938.308 0 .64 0 .947-.046l-.402 2.585c-.427.16-1.28.252-2.013.252-2.037 0-3.008-1.03-3.008-2.425 0-.618.071-1.212.237-2.082l1.823-9.036 3.505-.938zM112.383 53.324c0 1.304.663 2.174 1.847 2.174 1.871 0 2.913-2.631 2.913-4.553 0-1.03-.45-2.128-1.823-2.128-1.966 0-2.96 2.769-2.937 4.507m8.289-2.402c0 4.095-2.89 7.092-6.915 7.092-2.937 0-4.902-1.853-4.902-4.621 0-3.89 2.794-7.07 6.915-7.07 3.102 0 4.902 2.06 4.902 4.6M63.199 62.095c-1.812.841-3.562 1.266-5.2 1.266a8.16 8.16 0 0 1-.91-.048c-2.255-.232-3.996-1.328-5.035-3.17-.545-.961-.867-2.101-.976-3.348l-3.206-.022c.08 1.616.471 3.091 1.185 4.355 1.24 2.191 3.3 3.498 5.966 3.773.344.037.701.055 1.06.055 2.335 0 4.906-.772 7.436-2.232a.354.354 0 0 0-.32-.629"/>
        <path d="M63.635 51.587c1.778 0 2.969.228 3.572.682.606.452.764 1.073.485 1.858-.248.693-.764 1.223-1.546 1.585-.786.365-2.115.542-3.988.542h-2.07l1.674-4.667h1.873zm.61-6.937h2.101c1.038 0 1.748.168 2.138.5.384.337.477.787.277 1.359-.223.612-.665 1.094-1.323 1.448-.662.355-1.545.535-2.645.535h-1.926l1.377-3.842zm4.858-7.292c1.675.174 3.056.818 4.103 1.917a.344.344 0 0 0 .254.108h.004c.192 0 .348-.16.348-.354a.345.345 0 0 0-.094-.24c-1.261-1.868-3.205-2.99-5.634-3.244-.346-.035-.7-.053-1.059-.053-6.491 0-13.989 5.747-17.446 13.371-.957 2.11-1.517 4.181-1.677 6.11l3.168.023c.094-1.406.429-2.902.997-4.421l3.428.031a.9.9 0 0 0 .012-1.802l-2.667-.023c1.022-2.081 2.4-4.01 3.983-5.668l4.386.027-5.24 14.63-2.021-.018a.893.893 0 0 0-.896.895.894.894 0 0 0 .886.904l1.389.013h6.649c1.916 0 3.493-.21 4.73-.626a10.055 10.055 0 0 0 3.337-1.89c.992-.84 1.671-1.773 2.039-2.798.379-1.064.375-1.99-.012-2.769-.385-.78-1.207-1.431-2.46-1.95 1.039-.497 1.85-1.026 2.433-1.593.586-.564 1.002-1.196 1.248-1.888.383-1.066.296-1.992-.265-2.775-.561-.783-1.496-1.32-2.815-1.61-.923-.214-2.467-.323-4.632-.323h-3.672l-3.17-.019c2.97-2.475 6.378-4.015 9.449-4.015.311 0 .617.019.917.05zM48.79 64.043c-1.95-1.075-3.292-2.991-3.877-5.537-.433-1.903-.402-4.08.067-6.329l-2.6-.025c-.57 3.085-.29 5.992.858 8.299 1.1 2.228 2.917 3.741 5.24 4.378a.42.42 0 0 0 .5-.252.431.431 0 0 0-.189-.534M43.434 48.481c-.24.629-.451 1.252-.627 1.876l2.638.023c.138-.433.286-.863.448-1.294a23.712 23.712 0 0 1 1.958-3.955l-2.769-.017a23.224 23.224 0 0 0-1.648 3.367M46.255 43.32l2.828.017a22.811 22.811 0 0 1 2.793-3.081h.001c2.68-2.464 5.718-4.027 8.554-4.4a.422.422 0 0 0 .366-.444.424.424 0 0 0-.402-.407c-5.007-.16-10.474 3.225-14.14 8.315"/>
        <path d="M39.586 58.614c-.87-2.716-.859-5.862.041-9.095a20.368 20.368 0 0 1 3.488-6.955c1.579-2.038 3.49-3.676 5.528-4.73a.518.518 0 0 0 .229-.667.508.508 0 0 0-.642-.272c-2.42.93-4.637 2.512-6.467 4.531a.871.871 0 0 0-.157-.017l-2.29-.067a.9.9 0 0 0-.898.894c-.002.5.394.904.884.908l1.053.03a19.718 19.718 0 0 0-2.843 5.786c-.944 3.142-.98 6.202-.206 8.796l-3.145-.033a.896.896 0 0 0-.896.896c-.002.5.393.906.886.908l3.782.037c.027 0 .052-.006.079-.008.73 1.477 1.772 2.733 3.103 3.67a.511.511 0 0 0 .662-.774c-.965-1.039-1.704-2.33-2.19-3.838M35.822 48.993a1.017 1.017 0 0 0-1.006-1.028l-4.797.03A1.017 1.017 0 0 0 29 49.015a1.018 1.018 0 0 0 1.004 1.027l4.803-.034c.559.004 1.013-.45 1.015-1.014"/>
    </g>
</svg>
