<svg xmlns="http://www.w3.org/2000/svg" width="193" height="50" viewBox="0 0 193 50">
    <g fill-rule="evenodd">
        <path d="M187.578 9.525c-.669 0-1.23.19-1.684.569-.454.38-.732.898-.833 1.556h5.015c-.1-.645-.378-1.158-.832-1.537-.455-.392-1.01-.588-1.666-.588m5.28 3.054c0 .038-.019.304-.056.797h-7.703c.139.633.467 1.133.984 1.5.518.366 1.16.55 1.93.55.53 0 .997-.076 1.401-.228a3.518 3.518 0 0 0 1.155-.759l1.57 1.708c-.959 1.1-2.359 1.65-4.201 1.65-1.149 0-2.164-.22-3.047-.664-.884-.455-1.565-1.081-2.044-1.878-.48-.797-.72-1.701-.72-2.713 0-1 .234-1.898.7-2.695a4.972 4.972 0 0 1 1.95-1.878c.833-.456 1.76-.684 2.782-.684.997 0 1.9.216 2.707.646a4.624 4.624 0 0 1 1.892 1.86c.467.796.7 1.726.7 2.788M175.405 7.285c1.262 0 2.277.38 3.047 1.139.783.759 1.174 1.885 1.174 3.378v5.844h-2.953v-5.39c0-.809-.176-1.41-.53-1.802-.353-.405-.864-.607-1.533-.607-.744 0-1.337.234-1.779.702-.441.456-.662 1.139-.662 2.05v5.047h-2.952V7.437h2.82v1.196c.39-.43.876-.76 1.457-.987a4.95 4.95 0 0 1 1.911-.36M163.708 6.014c-.542 0-.984-.158-1.324-.474a1.54 1.54 0 0 1-.511-1.177c0-.468.17-.86.511-1.176.34-.316.782-.475 1.324-.475.543 0 .985.152 1.325.456.341.303.511.683.511 1.138 0 .494-.17.905-.51 1.234-.341.316-.783.474-1.326.474zm-1.475 11.632h2.952V7.437h-2.952v10.209zM159.197 17.152c-.29.215-.65.38-1.078.494a5.596 5.596 0 0 1-1.325.152c-1.212 0-2.152-.31-2.82-.93-.656-.62-.984-1.53-.984-2.733V9.942h-1.571V7.665h1.57V5.179h2.953v2.486h2.536v2.277h-2.536v4.155c0 .43.107.766.322 1.006.227.228.542.342.946.342.467 0 .864-.127 1.192-.38l.795 2.087zM144.614 7.285c1.262 0 2.278.38 3.047 1.139.783.759 1.174 1.885 1.174 3.378v5.844h-2.953v-5.39c0-.809-.176-1.41-.53-1.802-.353-.405-.864-.607-1.532-.607-.745 0-1.338.234-1.78.702-.441.456-.662 1.139-.662 2.05v5.047h-2.952V7.437h2.82v1.196c.39-.43.877-.76 1.457-.987.58-.24 1.218-.36 1.911-.36M130.11 15.805c.504 0 .952-.114 1.343-.341.392-.24.67-.589.833-1.044v-1.044h-2.025c-1.211 0-1.817.399-1.817 1.196 0 .38.145.683.436.91.302.216.712.323 1.23.323m.227-8.52c1.577 0 2.788.38 3.634 1.139.845.746 1.268 1.879 1.268 3.397v5.825h-2.764v-1.272c-.555.95-1.59 1.424-3.104 1.424-.782 0-1.463-.133-2.044-.399-.567-.266-1.003-.632-1.305-1.1a2.87 2.87 0 0 1-.455-1.594c0-.95.354-1.695 1.06-2.24.72-.543 1.823-.815 3.312-.815h2.347c0-.645-.195-1.139-.587-1.48-.39-.355-.977-.532-1.76-.532-.542 0-1.078.089-1.609.266a4.105 4.105 0 0 0-1.324.683l-1.06-2.068c.555-.392 1.218-.696 1.987-.91a9.027 9.027 0 0 1 2.404-.324M122.96 15.369v2.277h-9.084v-1.784l5.185-6.148h-5.053V7.437h8.782v1.784l-5.186 6.148zM111.92 7.437l-4.6 10.835c-.466 1.176-1.047 2.005-1.74 2.486-.682.48-1.508.72-2.48.72-.53 0-1.054-.082-1.571-.246-.517-.165-.94-.392-1.268-.683l1.079-2.106c.227.202.486.36.776.474.303.114.6.17.89.17.403 0 .731-.1.984-.303.252-.19.479-.512.68-.967l.039-.095-4.41-10.285h3.047l2.858 6.926 2.877-6.926h2.838zM93.012 15.33c.807 0 1.412-.132 1.816-.398.417-.265.625-.676.625-1.233 0-1.1-.814-1.65-2.441-1.65h-3.578v3.282h3.578zm-3.578-8.652V9.81h3.047c.758 0 1.332-.133 1.723-.398.39-.266.587-.658.587-1.177 0-.518-.196-.904-.587-1.157-.391-.266-.965-.399-1.723-.399h-3.047zm6.681 4.06c.757.241 1.35.646 1.78 1.215.429.557.643 1.246.643 2.068 0 1.164-.454 2.062-1.363 2.695-.895.62-2.208.93-3.936.93h-6.852V4.363h6.473c1.615 0 2.852.31 3.71.93.87.62 1.305 1.461 1.305 2.524 0 .645-.157 1.22-.473 1.726a3.185 3.185 0 0 1-1.287 1.196zM115.072 35.623c.714 0 1.297-.253 1.75-.758.464-.517.696-1.204.696-2.063 0-.857-.232-1.538-.696-2.043-.453-.517-1.036-.776-1.75-.776s-1.303.259-1.767.776c-.453.505-.679 1.186-.679 2.043 0 .859.226 1.546.679 2.063.464.505 1.053.758 1.767.758m.482-8.063c.893 0 1.702.221 2.428.663a4.464 4.464 0 0 1 1.732 1.836c.417.782.625 1.696.625 2.743 0 1.048-.208 1.969-.625 2.764a4.623 4.623 0 0 1-1.732 1.835c-.726.429-1.535.644-2.428.644-1.321 0-2.327-.442-3.017-1.325v1.173h-2.66V23.851h2.785v4.94c.702-.82 1.666-1.23 2.892-1.23M101.926 36.058a2.37 2.37 0 0 0 1.268-.341c.369-.24.63-.587.785-1.041v-1.04h-1.91c-1.143 0-1.714.397-1.714 1.191 0 .38.137.682.41.909.286.214.673.322 1.161.322m.214-8.498c1.488 0 2.63.38 3.429 1.136.797.744 1.196 1.873 1.196 3.388v5.81h-2.607v-1.268c-.524.946-1.5 1.419-2.928 1.419-.738 0-1.381-.133-1.928-.398-.536-.265-.947-.63-1.233-1.097a2.984 2.984 0 0 1-.428-1.59c0-.946.333-1.69 1-2.233.678-.543 1.72-.814 3.124-.814h2.214c0-.643-.184-1.135-.553-1.476-.369-.353-.923-.53-1.66-.53-.512 0-1.018.089-1.518.265a3.804 3.804 0 0 0-1.25.681l-1-2.062c.524-.392 1.149-.694 1.875-.909a8.089 8.089 0 0 1 2.267-.322M86.387 24.646h2.893v10.75h6.267v2.497h-9.16zM.032.025h56.779l-11.24 18.256h22.542L48.54 49.969l-9.609-5.936 8.931-14.458H25.355l11.24-18.256H11.325v30.878H.032z"/>
    </g>
</svg>
