<svg xmlns="http://www.w3.org/2000/svg" xmlns:xlink="http://www.w3.org/1999/xlink" width="180" height="100" viewBox="0 0 180 100">
    <defs>
        <path id="a" d="M0 27.354h108.895V.058H0z"/>
    </defs>
    <g fill="none" fill-rule="evenodd">
        <path fill="#585858" d="M35 36.189v23.048h6.174V42.361H54.99l-6.145 9.978H61.15l-4.882 7.902 5.253 3.244L72.22 46.166H59.897l6.145-9.977z"/>
        <g transform="translate(35 36.13)">
            <path fill="#585858" d="M108.895 7.188c0 .022-.011.176-.033.462h-4.463c.08.366.27.656.57.868.3.213.673.32 1.119.32a2.3 2.3 0 0 0 .811-.133c.241-.095.464-.242.67-.44l.91.99c-.556.637-1.368.956-2.435.956-.665 0-1.254-.128-1.765-.385a2.894 2.894 0 0 1-1.185-1.088 2.987 2.987 0 0 1-.416-1.572c0-.578.135-1.099.406-1.56a2.882 2.882 0 0 1 1.129-1.089 3.304 3.304 0 0 1 1.612-.395c.577 0 1.1.124 1.568.373a2.68 2.68 0 0 1 1.096 1.078c.27.461.406 1 .406 1.615m-3.06-1.77c-.387 0-.712.11-.975.33-.263.22-.424.52-.483.902h2.906c-.058-.374-.22-.67-.483-.89a1.425 1.425 0 0 0-.964-.341M98.783 4.122c.731 0 1.32.22 1.766.66.453.439.68 1.091.68 1.956v3.385h-1.711V7.002c0-.47-.102-.817-.307-1.045-.205-.234-.5-.351-.888-.351-.432 0-.775.135-1.03.406-.257.264-.385.66-.385 1.187v2.924h-1.71V4.21h1.633v.692c.227-.25.509-.44.845-.571.336-.14.705-.21 1.107-.21"/>
            <mask id="b" fill="#fff">
                <use xlink:href="#a"/>
            </mask>
            <path fill="#585858" d="M91.152 10.123h1.71V4.209h-1.71v5.914zm.855-6.738c-.314 0-.57-.091-.768-.275a.892.892 0 0 1-.296-.681c0-.271.1-.498.296-.682.198-.183.454-.274.768-.274s.57.087.767.263a.847.847 0 0 1 .297.66.952.952 0 0 1-.297.714c-.197.184-.453.275-.767.275zM89.393 9.837c-.168.125-.376.22-.625.286a3.237 3.237 0 0 1-.767.088c-.702 0-1.246-.18-1.634-.538-.38-.36-.57-.887-.57-1.583V5.66h-.91V4.343h.91v-1.44h1.71v1.44h1.47V5.66h-1.47v2.407c0 .249.063.443.187.582.131.132.314.198.548.198.27 0 .5-.073.691-.22l.46 1.21zM80.945 4.122c.73 0 1.32.22 1.765.66.454.439.68 1.091.68 1.956v3.385h-1.71V7.002c0-.47-.103-.817-.307-1.045-.205-.234-.501-.351-.889-.351-.431 0-.774.135-1.03.406-.256.264-.384.66-.384 1.187v2.924h-1.71V4.21h1.633v.692c.227-.25.508-.44.844-.571.337-.14.706-.21 1.108-.21M72.673 4.122c.914 0 1.616.22 2.105.66.49.432.735 1.087.735 1.967v3.374h-1.6v-.736c-.322.55-.922.824-1.799.824-.453 0-.848-.077-1.184-.23a1.765 1.765 0 0 1-.757-.638 1.662 1.662 0 0 1-.263-.924c0-.55.205-.981.614-1.296.417-.316 1.056-.473 1.919-.473h1.36c0-.374-.114-.66-.34-.858-.227-.205-.567-.307-1.02-.307-.315 0-.625.051-.932.154-.3.095-.556.227-.768.395l-.614-1.198a3.706 3.706 0 0 1 1.152-.527 5.224 5.224 0 0 1 1.392-.187m-.131 4.935c.292 0 .552-.066.778-.198.227-.139.387-.34.483-.604V7.65h-1.174c-.701 0-1.052.23-1.052.692 0 .22.084.396.252.528.175.125.413.187.713.187M68.4 8.804v1.32h-5.263V9.09l3.004-3.561h-2.928v-1.32h5.088v1.034l-3.004 3.561zM62.003 4.21l-2.664 6.276c-.27.681-.607 1.161-1.009 1.44-.395.278-.873.417-1.436.417-.307 0-.61-.047-.91-.143a2.01 2.01 0 0 1-.735-.395l.625-1.22a1.484 1.484 0 0 0 .965.373c.234 0 .424-.058.57-.175.146-.11.278-.297.395-.56l.022-.056L55.27 4.21h1.765l1.656 4.012 1.667-4.012h1.644zM52.847 6.122c.439.14.782.374 1.03.704.25.322.374.721.374 1.198 0 .674-.263 1.194-.79 1.56-.519.36-1.279.539-2.28.539h-3.97V2.429h3.75c.936 0 1.652.18 2.15.538.504.36.756.847.756 1.462 0 .374-.091.707-.274 1a1.845 1.845 0 0 1-.746.693zm-3.87-2.352v1.814h1.765c.439 0 .771-.077.998-.231.226-.154.34-.381.34-.682 0-.3-.114-.524-.34-.67-.227-.154-.56-.231-.998-.231h-1.765zm2.072 5.012c.468 0 .819-.077 1.053-.23.24-.155.362-.393.362-.715 0-.638-.472-.957-1.415-.957h-2.072v1.902h2.072zM64.164 15.66c.519 0 .99.128 1.411.385.43.25.765.605 1.007 1.067.242.454.363.986.363 1.594 0 .609-.12 1.144-.363 1.606-.242.455-.578.81-1.007 1.067-.422.25-.892.374-1.411.374-.768 0-1.353-.257-1.754-.77v.682h-1.546v-8.16h1.619v2.87c.408-.477.968-.715 1.68-.715m-.28 4.685c.416 0 .755-.146 1.018-.44.27-.3.405-.7.405-1.199 0-.498-.135-.894-.405-1.187a1.288 1.288 0 0 0-1.017-.451c-.415 0-.758.15-1.028.45-.262.294-.394.69-.394 1.188 0 .499.132.899.394 1.2.27.293.613.44 1.028.44M56.368 15.66c.864 0 1.529.22 1.992.66.464.432.695 1.089.695 1.969v3.376H57.54v-.737c-.304.55-.871.825-1.702.825-.429 0-.802-.077-1.12-.231a1.698 1.698 0 0 1-.717-.638 1.734 1.734 0 0 1-.249-.924c0-.55.194-.982.582-1.298.394-.315 1-.473 1.816-.473h1.286c0-.373-.107-.66-.321-.857-.215-.206-.537-.308-.965-.308-.298 0-.592.051-.882.154a2.211 2.211 0 0 0-.727.396l-.581-1.2a3.422 3.422 0 0 1 1.09-.527 4.703 4.703 0 0 1 1.318-.187m-.125 4.938c.277 0 .522-.066.737-.198.214-.14.366-.34.456-.605v-.605h-1.11c-.664 0-.996.231-.996.693 0 .22.08.396.238.528.167.125.391.187.675.187M47.212 13.966h1.68v6.247h3.643v1.452h-5.323z" mask="url(#b)"/>
        </g>
    </g>
</svg>
