<svg xmlns="http://www.w3.org/2000/svg" width="180" height="100" viewBox="0 0 180 100">
    <g fill="#585858" fill-rule="nonzero">
        <path d="M60.5 45.947c2.638 0 4.475 1.74 4.475 4.257 0 2.506-1.86 4.257-4.549 4.257h-3.539v-8.514H60.5zm-1.691 6.897h1.739c1.423 0 2.469-1.07 2.469-2.628 0-1.569-1.095-2.65-2.554-2.65h-1.654v5.278zM68.295 52.807l-.669 1.654h-1.982l3.697-8.514h1.983l3.636 8.514h-2.055l-.67-1.654h-3.94zm1.983-4.853l-1.35 3.309h2.688l-1.338-3.309zM80.068 45.947c2.165 0 3.406 1.071 3.406 2.956 0 1.983-1.24 3.126-3.406 3.126h-1.69v2.432h-1.922v-8.514h3.612zm-1.69 4.476h1.593c1.07 0 1.678-.486 1.678-1.46 0-.948-.608-1.422-1.678-1.422h-1.593v2.882zM88.922 45.947c2.165 0 3.405 1.071 3.405 2.956 0 1.983-1.24 3.126-3.405 3.126h-1.69v2.432H85.31v-8.514h3.612zm-1.69 4.476h1.593c1.07 0 1.678-.486 1.678-1.46 0-.948-.608-1.422-1.678-1.422h-1.594v2.882zM101.315 45.947c2.165 0 3.406 1.071 3.406 2.956 0 1.983-1.24 3.126-3.406 3.126h-1.69v2.432h-1.922v-8.514h3.612zm-1.69 4.476h1.593c1.07 0 1.678-.486 1.678-1.46 0-.948-.608-1.422-1.678-1.422h-1.593v2.882zM115.095 50.204c0 2.457-1.97 4.342-4.573 4.342-2.602 0-4.573-1.873-4.573-4.342 0-2.48 1.97-4.317 4.573-4.317 2.603 0 4.573 1.848 4.573 4.317zm-7.175 0c0 1.496 1.203 2.664 2.626 2.664 1.423 0 2.579-1.168 2.579-2.664 0-1.496-1.156-2.639-2.579-2.639a2.618 2.618 0 0 0-2.626 2.64zM124.035 47.298l-1.12 1.362c-.583-.669-1.422-1.107-2.213-1.107-1.46 0-2.59 1.131-2.59 2.615 0 1.484 1.13 2.627 2.59 2.627.766 0 1.606-.39 2.214-.997l1.13 1.228c-.9.924-2.2 1.52-3.441 1.52-2.542 0-4.464-1.885-4.464-4.354 0-2.457 1.958-4.305 4.537-4.305 1.228 0 2.518.547 3.357 1.41zM128.948 50.995l-1.228 1.362v2.104h-1.922v-8.514h1.922v3.868l3.539-3.868h2.225l-3.198 3.552 3.417 4.962h-2.31zM137.291 47.54v1.85h4.111v1.593h-4.11v1.885h4.694v1.593h-6.616v-8.513h6.482v1.593h-4.56zM147.775 47.577v6.884h-1.921v-6.884h-2.591v-1.63h7.115v1.63h-2.603z"/>
        <g>
            <path d="M48.3 46.527c0-.603-.49-1.093-1.094-1.093h-2.628a5.863 5.863 0 0 1 .22 2.187h1.315v.101c0 1.992-.742 3.806-2.09 5.109a6.976 6.976 0 0 1-2.646 1.595 7.7 7.7 0 0 1-2.443.39 7.775 7.775 0 0 1-2.07-.277 7.012 7.012 0 0 1-3.018-1.708c-1.347-1.303-2.09-3.117-2.09-5.109v-.101h1.315a5.867 5.867 0 0 1 .22-2.187h-2.628c-.604 0-1.093.49-1.093 1.094v1.195c0 2.59.978 4.962 2.756 6.68l.024.023a9.24 9.24 0 0 0 4.514 2.364c.67.141 1.363.213 2.07.213 2.527 0 4.874-.923 6.61-2.6 1.777-1.718 2.755-4.09 2.755-6.68v-1.196z"/>
            <path d="M43.402 47.161c0-.04-.003-.08-.004-.12a4.781 4.781 0 0 0-.069-.568 4.4 4.4 0 0 0-.074-.324c-.001-.008-.004-.016-.006-.023l-.02-.07a3.871 3.871 0 0 0-.076-.233c-.002-.009-.006-.019-.01-.028l-.011-.032a2.457 2.457 0 0 0-.024-.064l-.024-.057a.354.354 0 0 0-.015-.036l-.011-.025a1.288 1.288 0 0 0-.03-.068c-.008-.02-.017-.038-.026-.057l-.017-.037-.022-.045a.02.02 0 0 0-.004-.01l-.018-.035-.028-.054a3.804 3.804 0 0 0-.098-.177l-.002-.003c-.033-.057-.068-.113-.104-.168l-.008-.013a5.343 5.343 0 0 0-.045-.067l-.003-.004-.001-.003a5.61 5.61 0 0 0-.049-.069l-.008-.01a2.096 2.096 0 0 0-.058-.078l-.001-.003v-.001a3.269 3.269 0 0 0-.053-.067l-.008-.011-.054-.067a.07.07 0 0 0-.01-.01 3.808 3.808 0 0 0-.048-.058v-.001a.182.182 0 0 0-.022-.024l-.049-.057-.011-.012-.036-.04-.025-.026-.007-.007-.07-.072-.072-.07-.008-.008-.002-.002c-.006-.005-.01-.01-.015-.013l-.045-.043a.213.213 0 0 1-.016-.014l-.056-.05a.015.015 0 0 0-.007-.005 2.338 2.338 0 0 0-.09-.077l-.021-.017a.639.639 0 0 0-.043-.034s0-.002-.001 0a2.617 2.617 0 0 0-.074-.058c0-.002-.002-.002-.004-.004h-.001a5.056 5.056 0 0 0-.079-.058c-.003-.004-.007-.005-.01-.007l-.059-.042a.066.066 0 0 0-.014-.01l-.066-.045-.008-.004-.01-.007a1.217 1.217 0 0 0-.084-.053l-.073-.044-.013-.008a.609.609 0 0 0-.049-.028l-.023-.013-.016-.01a.956.956 0 0 1-.045-.024c-.011-.007-.024-.013-.036-.019a.826.826 0 0 0-.089-.045l-.009-.004-.03-.016h-.002l-.023-.011-.023-.011c0-.002-.003-.002-.003-.002l-.01-.005-.017-.008a.869.869 0 0 0-.04-.017l-.033-.015-.002-.001a.815.815 0 0 0-.076-.032.137.137 0 0 1-.018-.008c-.02-.01-.04-.016-.06-.024l-.093-.035a4.323 4.323 0 0 0-.081-.029c-.005 0-.01-.003-.015-.004a3.245 3.245 0 0 0-.108-.035l-.084-.025a4.756 4.756 0 0 0-.454-.105l-.009-.001-.028-.004a4.464 4.464 0 0 0-.397-.047h-.002a7.456 7.456 0 0 0-.199-.01h-.2c-.015.002-.031.002-.046.003a4.591 4.591 0 0 0-.58.058 4.457 4.457 0 0 0-.548.13l-.108.036-.079.027c-.005.003-.01.004-.016.006l-.07.026-.025.01a.535.535 0 0 0-.058.022l-.01.006a.365.365 0 0 0-.038.016.694.694 0 0 0-.046.019l-.003.001-.033.015a.363.363 0 0 0-.03.014c-.01.003-.018.008-.026.011l-.035.017h-.001a.746.746 0 0 0-.033.016l-.056.028-.003.002a1.57 1.57 0 0 0-.054.027l-.007.004c-.013.006-.025.012-.037.02l-.025.014-.02.01-.015.008v.001l-.024.013-.036.021-.013.007-.012.008a.034.034 0 0 0-.01.006l-.05.03-.014.008a2.45 2.45 0 0 0-.065.042l-.02.011a.89.89 0 0 0-.044.03l-.039.027-.02.013-.056.04-.006.005-.005.003a2.64 2.64 0 0 0-.075.055l-.003.003-.075.058-.005.003c0 .001-.003.002-.003.004a2.47 2.47 0 0 0-.071.057h-.001c-.02.017-.04.033-.058.05a3.5 3.5 0 0 0-.159.143l-.007.007-.072.07-.07.072-.008.008a.25.25 0 0 0-.015.016l-.045.048c-.023.025-.045.05-.066.076a1.098 1.098 0 0 0-.065.077l-.064.076a4.28 4.28 0 0 0-.12.16l-.058.083-.056.083a5.834 5.834 0 0 0-.155.259l-.012.02a1.537 1.537 0 0 0-.036.07 1.741 1.741 0 0 0-.05.099c-.014.027-.028.054-.04.081l-.042.093a1.847 1.847 0 0 0-.04.094l-.023.057-.009.027a.035.035 0 0 0-.005.01l-.01.027-.025.069a2.979 2.979 0 0 0-.076.235 3.344 3.344 0 0 0-.053.202 2.653 2.653 0 0 0-.043.205l-.011.063a.03.03 0 0 0-.002.01l-.005.027-.006.036a1.075 1.075 0 0 1-.008.05l-.004.033-.009.075a.04.04 0 0 0-.001.01c-.003.032-.008.062-.01.094a1.196 1.196 0 0 0-.006.076l-.006.089a2.878 2.878 0 0 0-.006.235 4.687 4.687 0 0 0 .005.218c0 .007 0 .014.002.021l.005.086.006.075.01.1.012.092.002.013.01.065c.006.043.013.085.022.127.005.033.013.066.02.098l.021.1.025.097.026.098a3.82 3.82 0 0 0 .094.287 3.353 3.353 0 0 0 .072.184l.027.064.041.091.001.003.043.09.008.014.01.022c.01.018.02.035.029.054l.018.036.018.031c.006.013.013.025.02.036.007.015.016.03.024.044l.017.03.053.085a2.584 2.584 0 0 0 .05.081l.006.01.053.078.011.015a3.979 3.979 0 0 0 .047.067c0 .002.001.003.003.004a3.661 3.661 0 0 0 .13.173l.05.06c.016.02.032.04.05.058.02.026.043.051.065.076l.077.082.078.08.08.078a.78.78 0 0 1 .023.02l.055.053.08.07.012.01.038.032.008.007a.11.11 0 0 0 .01.009h.001l.012.01a4.178 4.178 0 0 0 .102.08l.02.016.011.007s0 .002.002.002l.011.01.02.014v.001c.013.01.026.017.038.027a2.589 2.589 0 0 0 .177.121l.026.017a.277.277 0 0 0 .018.011l.019.012.022.013v.001a1.487 1.487 0 0 0 .084.051l.007.004.062.035.03.017.08.042c.012.007.024.015.037.02l.017.009.02.01.015.008a.238.238 0 0 0 .023.01.699.699 0 0 0 .059.029l.044.02a.38.38 0 0 1 .042.02c.003 0 .004 0 .006.002a.513.513 0 0 1 .034.015l.035.014a.1.1 0 0 0 .015.006l.02.009a.521.521 0 0 0 .042.016l.029.012.013.004c.004.003.007.003.011.005a3.06 3.06 0 0 0 .095.035l.093.032.004.001a8.762 8.762 0 0 0 .07.022c.022.008.046.014.068.021l.003.001.013.004h.003l.105.029.078.02c.008 0 .016.003.023.005a.777.777 0 0 0 .084.019l.1.02c.017.002.035.006.054.01l.024.003.049.008.065.01c.004 0 .009 0 .013.002l.092.011a3.832 3.832 0 0 0 .175.017l.085.005c.042.003.085.005.129.006h.054c.038.002.074.002.112 0h.055l.09-.003.008-.001.027-.001a6.014 6.014 0 0 0 .258-.022l.04-.005.046-.006.058-.008.024-.004.008-.001.054-.009c.003 0 .006 0 .008-.002h.01l.056-.011.097-.02h.001l.05-.01.03-.007.027-.007a2.978 2.978 0 0 0 .185-.048l.017-.005.069-.021a6.432 6.432 0 0 0 .166-.055l.021-.007.074-.028.025-.009.077-.03.058-.025a.467.467 0 0 1 .029-.012l.012-.006.09-.04.051-.026a.325.325 0 0 0 .031-.014c.011-.006.022-.01.031-.017.02-.01.04-.018.06-.03l.078-.042c.01-.005.02-.01.03-.017l.062-.035.006-.003.07-.043c.042-.025.084-.051.125-.08l.033-.021.026-.017.013-.01a.796.796 0 0 0 .069-.048.063.063 0 0 0 .01-.008l.038-.027.03-.024h.002c.013-.01.025-.018.036-.028l.044-.034a2.503 2.503 0 0 0 .135-.112l.08-.07.014-.012.04-.037.025-.024.08-.077.039-.04.038-.04.073-.078a2.275 2.275 0 0 0 .1-.115l.02-.023.042-.051.046-.06a2.516 2.516 0 0 0 .096-.13 1.693 1.693 0 0 0 .084-.12l.03-.043a1.64 1.64 0 0 0 .053-.085l.028-.047c.028-.045.053-.09.08-.136l.041-.08a3.384 3.384 0 0 0 .132-.273l.025-.059.002-.004a3.23 3.23 0 0 0 .1-.265 6.603 6.603 0 0 0 .066-.207l.026-.098.025-.098a3.8 3.8 0 0 0 .021-.099l.02-.098.02-.12.013-.078a3.658 3.658 0 0 0 .028-.274l.006-.086.005-.127.002-.111v-.001a5.951 5.951 0 0 1-.003-.11zm-2.704-1.01l.001.002a.827.827 0 0 1 .048.07c.015.024.03.047.043.071.013.024.027.046.038.07.014.025.027.05.038.077l.003.006a1.71 1.71 0 0 1 .137.402c.006.027.012.056.016.084l.008.05a.497.497 0 0 1 .007.052 1.444 1.444 0 0 1 .008.073l.001.02.001.017v.01c.002.01.002.023.003.035.002.054.002.108 0 .162l-.002.035v.012c0 .004 0 .008-.002.013v.008c0 .01-.002.019-.003.028a.62.62 0 0 1-.005.055l-.001.005a1.517 1.517 0 0 1-.012.084v.006l-.009.048-.01.046a1.537 1.537 0 0 1-.102.326l-.002.006v.003l-.035.076-.007.015c-.01.02-.02.042-.032.063l-.014.026a2.62 2.62 0 0 1-.074.124l-.001.002a3.266 3.266 0 0 1-.105.145 2.396 2.396 0 0 1-.056.07l-.004.004a.066.066 0 0 1-.008.01l-.003.002c0 .002-.002.003-.003.004l-.01.012-.005.004a.029.029 0 0 0-.005.008h-.002c0 .002-.002.003-.004.005l-.019.02-.008.008c-.003.003-.005.007-.01.01l-.002.004-.015.014-.001.001v.001h-.002a3.27 3.27 0 0 1-.084.08l-.006.005a.07.07 0 0 1-.01.01l-.021.018-.008.006-.038.03c-.001.001-.002.003-.004.003a1.136 1.136 0 0 1-.145.104 1.169 1.169 0 0 1-.055.035c-.007.005-.013.009-.02.012a.104.104 0 0 0-.005.004l-.003.001a2.178 2.178 0 0 1-.106.058l-.05.024a1.39 1.39 0 0 1-.133.056 1.658 1.658 0 0 1-.1.034l-.003.001-.007.002-.03.01a2.06 2.06 0 0 0-.048.013c-.002 0-.004 0-.007.002l-.071.017h-.003a2.04 2.04 0 0 1-.067.014l-.016.003a.247.247 0 0 1-.036.006l-.022.003a.997.997 0 0 0-.027.004l-.014.002h-.005c-.004 0-.008 0-.011.002a1.344 1.344 0 0 1-.08.007h-.005l-.01.001h-.014a.752.752 0 0 1-.03.003h-.005a2.271 2.271 0 0 1-.16 0h-.006a.794.794 0 0 1-.032-.002h-.016c-.002 0-.004 0-.007-.002h-.004l-.026-.001h-.002l-.058-.007h-.004l-.022-.003-.047-.007-.016-.003c-.016-.002-.033-.005-.049-.009l-.016-.003a.259.259 0 0 1-.025-.005l-.024-.005a1.585 1.585 0 0 0-.038-.009l-.036-.009-.043-.012a.238.238 0 0 1-.027-.008l-.006-.003-.015-.004a1.092 1.092 0 0 1-.05-.017l-.015-.005-.089-.035-.008-.003a1.665 1.665 0 0 1-.086-.039l-.063-.03c-.021-.013-.042-.023-.062-.036l-.005-.003-.01-.005a.898.898 0 0 1-.075-.047c-.01-.006-.019-.012-.028-.02-.004-.001-.008-.004-.012-.007a.099.099 0 0 1-.02-.014l-.006-.004a.052.052 0 0 0-.007-.004l-.014-.01-.026-.02a.177.177 0 0 1-.016-.012.075.075 0 0 1-.01-.009l-.013-.01-.06-.048c0-.002-.001-.002-.002-.003l-.004-.004-.006-.005s-.002 0-.003-.002a.096.096 0 0 0-.008-.007l-.004-.004-.012-.01-.006-.005-.003-.003-.003-.003-.022-.02-.035-.035-.003-.003-.053-.055-.002-.002a.355.355 0 0 1-.023-.027c-.002 0-.003-.002-.003-.003-.002 0-.003-.002-.003-.003a.052.052 0 0 1-.01-.01l-.001-.003-.017-.018-.007-.009a2.41 2.41 0 0 1-.086-.112l-.001-.003a.027.027 0 0 1-.007-.01.512.512 0 0 1-.021-.03 1.234 1.234 0 0 1-.11-.182 1.896 1.896 0 0 1-.025-.049l-.018-.04a4.107 4.107 0 0 1-.03-.07l-.006-.008a2.167 2.167 0 0 0-.02-.054l-.011-.027a1.797 1.797 0 0 1-.1-.423c-.002-.016-.005-.032-.005-.047a.188.188 0 0 1-.003-.029l-.002-.02v-.002-.003l-.001-.012v-.01-.005l-.003-.033a1.62 1.62 0 0 1 .004-.224c0-.015.002-.028.003-.042.001-.02.005-.04.007-.06.002-.02.004-.038.008-.058l.005-.029a1.07 1.07 0 0 1 .014-.077l.003-.01.018-.078a.762.762 0 0 1 .011-.039l.013-.043.002-.009v-.001c.009-.025.016-.05.026-.074l.03-.08h.001v-.001l.003-.008c.01-.023.02-.048.032-.07.01-.024.022-.048.034-.071.01-.02.02-.04.033-.06.004-.01.01-.018.015-.028l.004-.006a1.654 1.654 0 0 1 .085-.132l.001-.002a1.985 1.985 0 0 1 .12-.154l.002-.002.002-.001c.001-.004.003-.005.006-.008l.002-.002.006-.007v-.001l.019-.021v-.001l.006-.006.052-.054.003-.003.008-.008.05-.048.003-.002c0-.002.002-.002.002-.002h.001c.008-.008.014-.015.022-.02l.005-.005c.001-.002.002-.002.003-.002l.005-.004v-.002c.002 0 .003-.001.003-.002l.004-.004.01-.008c.003-.004.008-.007.012-.01l.007-.006a.227.227 0 0 1 .03-.024h.001l.026-.02v-.002a.022.022 0 0 1 .01-.006.22.22 0 0 1 .027-.021.359.359 0 0 1 .052-.036.819.819 0 0 1 .192-.117c.026-.013.051-.027.078-.038a1.23 1.23 0 0 1 .071-.032l.008-.003.001-.002c.004 0 .007-.002.01-.003a2.06 2.06 0 0 1 .158-.057.672.672 0 0 1 .076-.023h.003a.1.1 0 0 0 .004-.002h.002l.005-.001.045-.012.024-.005h.002a.035.035 0 0 1 .01-.002l.036-.007a.591.591 0 0 1 .052-.01h.003a1.962 1.962 0 0 1 .18-.022l.022-.001h.002a2.255 2.255 0 0 1 .244.001h.015l.028.002c.012.002.026.002.038.005a.14.14 0 0 1 .026.002l.003.001h.002a.358.358 0 0 1 .065.01.1.1 0 0 1 .025.004l.01.001.033.006.003.001a.29.29 0 0 1 .04.008c.002 0 .005 0 .007.002h.003l.03.007.008.002.032.008h.002l.009.003h.002a1.395 1.395 0 0 1 .082.025l.047.015.036.012.073.029.007.003.075.033.005.002.013.008c.005.001.01.004.014.006l.043.02.008.006c.004.002.009.003.013.007a.216.216 0 0 1 .025.014l.03.015.009.007a.548.548 0 0 1 .041.025c.008.003.015.008.022.013l.009.006c.001 0 .002 0 .003.002.002 0 .003.002.004.003l.064.043.003.003.011.008.06.044.05.041.002.002a.13.13 0 0 1 .02.018h.001a.05.05 0 0 1 .009.008l.001.001h.001s.002 0 .003.004l.001.001.001.002.02.016.005.005.001.001h.001l.003.003.022.02.032.031.003.004a1.563 1.563 0 0 1 .055.057l.004.004.002.002a.14.14 0 0 1 .02.023l.004.005c.002 0 .002.001.002.002.001.002.003.002.003.004.003.002.003.003.005.006.003 0 .005.003.005.005l.002.003.021.024c.035.04.067.083.097.126z"/>
        </g>
    </g>
</svg>
