<svg xmlns="http://www.w3.org/2000/svg" width="180" height="100" viewBox="0 0 180 100">
    <g fill="#585858" fill-rule="nonzero">
        <path d="M58.96 57.095V41.06h3.122v7.622l6.738-7.65h3.442l-6.165 7.13 6.536 8.933h-3.476l-5.018-6.945-2.057 2.15v4.795z"/>
        <path d="M79.158 47.867a5.99 5.99 0 0 0-2.467.532 3.128 3.128 0 0 0-1.56 1.53v7.166H72.1V45.24h2.792v2.531c.211-.393.468-.76.765-1.093a5.69 5.69 0 0 1 .93-.85c.3-.23.631-.419.983-.562.313-.123.646-.188.982-.19h.383c.08-.001.159.007.237.022l-.015 2.77z"/>
        <path d="M79.406 59.417c.245.074.494.131.746.172.203.032.407.05.612.054a1.35 1.35 0 0 0 .543-.111c.18-.088.336-.22.451-.383.165-.238.303-.495.41-.765.133-.332.275-.765.428-1.243l-4.681-11.855h3.12l3.213 9.228 2.85-9.228h2.848L84.975 59.49a4.245 4.245 0 0 1-1.469 2.034 4.15 4.15 0 0 1-2.581.792 5.354 5.354 0 0 1-.735-.054 4.65 4.65 0 0 1-.765-.195l-.019-2.65z"/>
        <path d="M97.003 57.321a4.666 4.666 0 0 1-2.444-.623 4.402 4.402 0 0 1-1.626-1.683v6.884h-3.032V45.244h2.646v2.034a4.796 4.796 0 0 1 1.698-1.63 4.685 4.685 0 0 1 2.394-.6 5.064 5.064 0 0 1 2.218.486 5.503 5.503 0 0 1 1.752 1.312c.5.572.89 1.232 1.147 1.947.28.756.422 1.557.417 2.363a7.462 7.462 0 0 1-.382 2.417 6.188 6.188 0 0 1-1.075 1.97 4.972 4.972 0 0 1-1.64 1.312 4.59 4.59 0 0 1-2.073.466zm-1.018-2.578a2.73 2.73 0 0 0 1.255-.294c.38-.191.715-.461.983-.792.278-.341.493-.73.634-1.147.15-.436.226-.893.226-1.354a3.863 3.863 0 0 0-.249-1.392 3.442 3.442 0 0 0-.688-1.12 3.144 3.144 0 0 0-2.34-1.017c-.3.002-.599.051-.884.144-.298.099-.58.24-.837.421-.256.18-.488.392-.689.631a2.677 2.677 0 0 0-.463.792v2.784a4.02 4.02 0 0 0 1.243 1.683 2.83 2.83 0 0 0 1.81.661z"/>
        <path d="M109.49 56.484c-.487.211-.987.393-1.496.543-.6.184-1.226.275-1.855.271-.4.002-.8-.05-1.185-.157a2.597 2.597 0 0 1-.972-.508 2.463 2.463 0 0 1-.67-.907 3.293 3.293 0 0 1-.248-1.346v-6.819h-1.56v-2.317h1.56v-3.825h3.033v3.825h2.486v2.317h-2.486v5.802c-.036.332.084.663.325.895.23.176.514.268.803.26.317 0 .631-.054.93-.16.302-.104.543-.196.722-.272l.612 2.398z"/>
        <path d="M114.553 57.321a6.502 6.502 0 0 1-2.6-.497 5.844 5.844 0 0 1-1.955-1.346 5.955 5.955 0 0 1-1.235-1.955 6.62 6.62 0 0 1 0-4.685c.28-.725.7-1.39 1.235-1.954a5.844 5.844 0 0 1 1.954-1.346 6.502 6.502 0 0 1 2.601-.497 6.394 6.394 0 0 1 2.59.497 5.836 5.836 0 0 1 3.177 3.3 6.563 6.563 0 0 1 0 4.685 6.043 6.043 0 0 1-1.22 1.955 5.737 5.737 0 0 1-1.946 1.346 6.475 6.475 0 0 1-2.601.497zm-3.098-6.119c-.006.49.074.976.237 1.438.15.41.372.79.658 1.12.554.638 1.359 1.002 2.203.995a2.887 2.887 0 0 0 2.207-.994c.289-.338.511-.727.654-1.148.165-.464.247-.953.24-1.445a4.092 4.092 0 0 0-.24-1.427 3.476 3.476 0 0 0-.654-1.147 2.887 2.887 0 0 0-2.207-.995c-.422-.002-.84.09-1.22.272-.375.178-.71.432-.983.746-.289.338-.512.727-.658 1.147-.161.458-.241.94-.237 1.427v.011z"/>
        <path d="M132.536 57.199a6.146 6.146 0 0 1-4.479 1.912 7.13 7.13 0 0 1-2.975-.635 7.553 7.553 0 0 1-2.421-1.736 8.353 8.353 0 0 1-1.626-2.612 8.662 8.662 0 0 1-.6-3.247 8.188 8.188 0 0 1 2.264-5.66 7.951 7.951 0 0 1 2.478-1.74 8.085 8.085 0 0 1 6.976.305 6.12 6.12 0 0 1 2.402 2.555l-2.295 1.721a4.31 4.31 0 0 0-1.71-1.832 4.662 4.662 0 0 0-2.382-.635 4.096 4.096 0 0 0-1.885.436 4.406 4.406 0 0 0-1.45 1.178 5.58 5.58 0 0 0-.925 1.717 6.326 6.326 0 0 0-.33 2.062c-.006.72.117 1.435.364 2.11a5.32 5.32 0 0 0 .994 1.71c.417.482.929.872 1.503 1.148a4.299 4.299 0 0 0 1.89.401c1.552 0 2.955-.731 4.207-2.195v-1.147H129.3V50.72h5.813v8.288h-2.577v-1.81zM142.938 59.122a7.266 7.266 0 0 1-3.201-.692 7.84 7.84 0 0 1-2.463-1.832 8.498 8.498 0 0 1-2.16-5.618c-.002-1.049.202-2.088.6-3.06a8.475 8.475 0 0 1 1.648-2.6 7.917 7.917 0 0 1 2.501-1.797 7.43 7.43 0 0 1 3.144-.67 7.068 7.068 0 0 1 3.178.715 7.978 7.978 0 0 1 2.455 1.867 8.62 8.62 0 0 1 1.595 2.604c.37.951.56 1.963.562 2.983a8.177 8.177 0 0 1-.585 3.06 8.387 8.387 0 0 1-1.63 2.577 7.825 7.825 0 0 1-2.489 1.787 7.43 7.43 0 0 1-3.155.676zm-4.658-8.142a6.38 6.38 0 0 0 .317 2.012 5.4 5.4 0 0 0 .93 1.717 4.59 4.59 0 0 0 1.472 1.2c1.257.61 2.724.61 3.981 0a4.612 4.612 0 0 0 1.469-1.23c.401-.52.708-1.107.906-1.733a6.434 6.434 0 0 0-.023-3.97 5.588 5.588 0 0 0-.929-1.717 4.448 4.448 0 0 0-1.469-1.19 4.59 4.59 0 0 0-3.97.024 4.501 4.501 0 0 0-1.472 1.223 5.473 5.473 0 0 0-.89 1.718 6.465 6.465 0 0 0-.322 1.946zM40.722 47.24l-.337.333v2.86l5.114 5.943 1.992-2.317-6.283-7.297zM40.385 42.574v2.058l.433.504.436.505 7.014-6.93-3.764-.401zM36.6 40.233l1.296 1.507 1.051 1.22.348-.36.326-.336v-4.05l-3.022.325zM43.54 38.207L41.633 38l-1.247.134v3.339zM47.992 53.474l6.276-7.29-2.658-3.683-2.6-3.45-7.26 7.172zM36.806 46.276l1.663 1.935.084.096 1.068-1.056v-2.333l-.708-.822zM39.62 49.546v-1.22l-.566.562zM39.448 43.542l.077.088.096.114v-.378l-.088.088zM38.007 48.846l-1.408-1.637v3.03l.574-.567.834-.826zM40.385 51.607v7.806l1.247 1.45 3.362-3.901-4.609-5.355zM38.412 43.511l-.822-.956-.99-1.147v3.98l.948-.982zM39.62 50.72l-1.112-1.293-1.094 1.079-.815.807v3.702l3.022 3.507zM35.834 46.18V38.624l-1.361.146-2.811 3.732L29 46.184l6.834 7.944v-7.806zM40.707 46.18l-.104-.122-.218-.252v.692l.115-.115z"/>
    </g>
</svg>
