<svg xmlns="http://www.w3.org/2000/svg" width="180" height="100" viewBox="0 0 180 100">
    <g fill-rule="nonzero">
        <path d="M56.826 57.284V40.25h3.315v8.097l7.158-8.125h3.656l-6.549 7.572 6.943 9.49h-3.693l-5.33-7.377-2.185 2.283v5.094z"/>
        <path d="M78.28 47.481c-.904 0-1.797.193-2.62.565a3.323 3.323 0 0 0-1.658 1.625v7.613h-3.218V44.69h2.966v2.69c.224-.418.496-.809.813-1.162.294-.336.625-.639.987-.902.32-.245.67-.446 1.044-.597.332-.131.686-.2 1.044-.203h.406c.085 0 .169.007.252.024l-.016 2.941z"/>
        <path d="M78.544 59.75c.26.078.524.14.792.183.215.034.432.053.65.057.198 0 .395-.04.577-.118.191-.093.356-.233.48-.406.175-.254.32-.526.434-.813.142-.353.292-.812.455-1.32l-4.973-12.594h3.315l3.413 9.803 3.026-9.803h3.027l-5.281 15.088a4.51 4.51 0 0 1-1.56 2.161 4.408 4.408 0 0 1-2.742.841 5.687 5.687 0 0 1-.78-.056 4.94 4.94 0 0 1-.813-.208l-.02-2.815z"/>
        <path d="M97.235 57.524a4.956 4.956 0 0 1-2.596-.662 4.676 4.676 0 0 1-1.726-1.788v7.313H89.69V44.694h2.811v2.162a5.094 5.094 0 0 1 1.804-1.731 4.977 4.977 0 0 1 2.543-.638 5.379 5.379 0 0 1 2.357.516c.707.335 1.34.81 1.86 1.394a6.5 6.5 0 0 1 1.219 2.067c.298.804.448 1.654.443 2.511.007.872-.13 1.74-.406 2.567a6.573 6.573 0 0 1-1.142 2.093 5.281 5.281 0 0 1-1.743 1.393 4.875 4.875 0 0 1-2.202.496zm-1.08-2.738a2.9 2.9 0 0 0 1.332-.313 3.18 3.18 0 0 0 1.044-.841c.296-.363.525-.775.675-1.219.159-.463.24-.949.24-1.438a4.103 4.103 0 0 0-.265-1.479 3.656 3.656 0 0 0-.731-1.19 3.34 3.34 0 0 0-2.486-1.08 3.108 3.108 0 0 0-.939.154 3.384 3.384 0 0 0-.89.447c-.271.19-.517.416-.73.67-.212.25-.378.534-.492.84v2.958a4.27 4.27 0 0 0 1.32 1.788c.539.452 1.219.7 1.922.703z"/>
        <path d="M110.5 56.634c-.518.225-1.048.417-1.59.577a6.574 6.574 0 0 1-1.97.289 4.654 4.654 0 0 1-1.259-.167 2.758 2.758 0 0 1-1.032-.54 2.616 2.616 0 0 1-.71-.963 3.498 3.498 0 0 1-.265-1.43v-7.244h-1.657v-2.462h1.657v-4.062h3.222v4.062h2.64v2.462h-2.64v6.163c-.038.353.09.704.345.95.244.188.546.286.853.277.337 0 .67-.058.988-.17.32-.11.576-.208.767-.29l.65 2.548z"/>
        <path d="M115.878 57.524a6.906 6.906 0 0 1-2.762-.528 6.208 6.208 0 0 1-2.076-1.43 6.325 6.325 0 0 1-1.313-2.076 7.032 7.032 0 0 1 0-4.977 6.325 6.325 0 0 1 1.313-2.076 6.208 6.208 0 0 1 2.076-1.43 6.906 6.906 0 0 1 2.762-.528 6.792 6.792 0 0 1 2.75.528 6.2 6.2 0 0 1 3.376 3.506 6.971 6.971 0 0 1 0 4.977 6.419 6.419 0 0 1-1.296 2.076 6.094 6.094 0 0 1-2.067 1.43 6.878 6.878 0 0 1-2.763.528zm-3.29-6.5c-.007.52.078 1.037.251 1.527.159.436.396.84.7 1.19a3.067 3.067 0 0 0 2.34 1.057 3.067 3.067 0 0 0 2.343-1.056c.307-.359.543-.772.695-1.22a4.412 4.412 0 0 0 .256-1.535 4.347 4.347 0 0 0-.256-1.515 3.693 3.693 0 0 0-.695-1.219 3.067 3.067 0 0 0-2.344-1.056 2.966 2.966 0 0 0-1.296.288 3.21 3.21 0 0 0-1.044.793 3.774 3.774 0 0 0-.699 1.218c-.171.487-.256 1-.251 1.516v.012z"/>
        <path d="M134.98 57.394a6.529 6.529 0 0 1-4.757 2.031 7.574 7.574 0 0 1-3.16-.674 8.023 8.023 0 0 1-2.572-1.845 8.872 8.872 0 0 1-1.727-2.774 9.202 9.202 0 0 1-.638-3.45 8.698 8.698 0 0 1 2.405-6.012 8.446 8.446 0 0 1 2.633-1.848 8.588 8.588 0 0 1 7.41.325 6.5 6.5 0 0 1 2.551 2.713l-2.438 1.828a4.578 4.578 0 0 0-1.815-1.946 4.952 4.952 0 0 0-2.531-.674 4.35 4.35 0 0 0-2.003.463 4.68 4.68 0 0 0-1.54 1.252 5.927 5.927 0 0 0-.983 1.824 6.72 6.72 0 0 0-.35 2.19 6.346 6.346 0 0 0 .387 2.242 5.65 5.65 0 0 0 1.056 1.816c.443.511.986.926 1.596 1.218a4.566 4.566 0 0 0 2.007.427c1.65 0 3.14-.777 4.469-2.332V52.95h-3.437v-2.437h6.175v8.803h-2.738v-1.921z"/>
        <path d="M146.03 59.437a7.719 7.719 0 0 1-3.4-.735 8.328 8.328 0 0 1-2.617-1.946 9.027 9.027 0 0 1-2.295-5.968 8.56 8.56 0 0 1 .638-3.25 9.002 9.002 0 0 1 1.75-2.762 8.41 8.41 0 0 1 2.658-1.91 7.893 7.893 0 0 1 3.34-.71 7.508 7.508 0 0 1 3.375.759 8.474 8.474 0 0 1 2.608 1.983 9.157 9.157 0 0 1 1.694 2.766 8.8 8.8 0 0 1 .597 3.169 8.686 8.686 0 0 1-.621 3.25 8.91 8.91 0 0 1-1.73 2.738 8.312 8.312 0 0 1-2.645 1.897 7.893 7.893 0 0 1-3.352.72zm-4.948-8.649a6.778 6.778 0 0 0 .337 2.137c.216.663.55 1.281.987 1.824.427.53.96.964 1.564 1.276a4.847 4.847 0 0 0 4.23 0 4.9 4.9 0 0 0 1.56-1.308 5.94 5.94 0 0 0 .962-1.84 6.834 6.834 0 0 0-.024-4.218 5.935 5.935 0 0 0-.987-1.824 4.725 4.725 0 0 0-1.56-1.263 4.875 4.875 0 0 0-4.217.024 4.782 4.782 0 0 0-1.564 1.3 5.813 5.813 0 0 0-.947 1.824 6.867 6.867 0 0 0-.341 2.068zM37.452 46.815l-.358.353v3.04l5.432 6.312 2.116-2.462-6.675-7.75zM37.094 41.859v2.185l.46.537.462.536 7.45-7.361-3.997-.427zM33.072 39.373l1.377 1.6 1.118 1.296.37-.382.345-.357v-4.303l-3.21.346zM40.446 37.22L38.418 37l-1.324.142v3.547zM45.174 53.437l6.667-7.743-2.824-3.912-2.762-3.665-7.71 7.617zM33.292 45.791l1.767 2.056.09.101 1.133-1.12v-2.479l-.752-.873zM36.282 49.265v-1.296l-.602.597zM36.099 42.887l.081.093.102.122V42.7l-.094.093zM34.567 48.521l-1.495-1.739V50l.61-.601.885-.878zM37.094 51.454v8.292l1.324 1.54 3.571-4.144-4.895-5.688zM34.998 42.854l-.874-1.016-1.052-1.218v4.229l1.008-1.044zM36.282 50.512l-1.183-1.373-1.161 1.145-.866.858v3.932l3.21 3.725zM32.26 45.69v-8.028l-1.447.155-2.985 3.965L25 45.694l7.26 8.438V45.84zM37.435 45.69l-.11-.13-.23-.268v.735l.12-.122z"/>
    </g>
</svg>
