<svg xmlns="http://www.w3.org/2000/svg" width="180" height="100" viewBox="0 0 180 100">
    <g fill="none" fill-rule="evenodd">
        <path d="M0 0h180v100H0z"/>
        <g fill="#585858" fill-rule="nonzero">
            <path d="M75.434 50.188l-2.697-3.204h-1.876v9.008h2.18v-5.557l2.144 2.585h.482l2.145-2.585v5.557h2.18v-9.008h-1.866zM86.425 46.984h2.18v9.008h-2.18zM94.406 48.784h3.046v7.208h2.18v-7.208h3.046v-1.8h-8.272zM114.552 50.557h-3.929v-3.573h-2.18v9.008h2.18v-3.588h3.929v3.588h2.18v-9.008h-2.18zM129.464 53.486a7.855 7.855 0 0 0-.82-1.33 3.054 3.054 0 0 0-.412-.391c.32-.181.6-.43.816-.73.284-.412.432-.905.423-1.408a2.441 2.441 0 0 0-.85-1.921 3.16 3.16 0 0 0-2.141-.726h-3.35V56h2.18v-3.596h.338c.199-.004.395.05.563.157.224.163.416.367.568.6.373.581.715 1.182 1.025 1.8.162.315.34.621.533.917l.077.114h2.468l-.26-.392c-.25-.384-.626-1.09-1.158-2.114zm-3.361-2.878h-.777v-1.851h.777c.312-.02.623.062.886.235a.788.788 0 0 1 .272.67.863.863 0 0 1-.284.687 1.285 1.285 0 0 1-.851.259M136.294 46.984h2.18v9.008h-2.18zM146.769 54.192v-7.208h-2.18v9.008h6.341v-1.8zM62.573 58.502l-4.487-6.808-6.162-11.047a.826.826 0 0 0-.778-.431.844.844 0 0 0-.66.513l-4.118 8.867a.197.197 0 0 1-.33.07l-4.042-5.697a.775.775 0 0 0-.66-.342.888.888 0 0 0-.649.393l-6.112 9.11v.019l-5.05 5.353a.841.841 0 0 0-.175.863.777.777 0 0 0 .695.463h31.91c.3.004.582-.143.75-.393a1.06 1.06 0 0 0-.132-.933zM51.535 43.627a.151.151 0 1 1 .284-.07l4.184 7.525a.15.15 0 0 1-.01.167.147.147 0 0 1-.157.053l-1.655-.392-2.696-.667a.153.153 0 0 1-.117-.153l.167-6.463zm-4.849 9.17c.022-.247.068-.49.14-.726.136-.35.357-.82.357-.82l3.291-6.937a.151.151 0 0 1 .288.07l-.16 5.934a.15.15 0 0 1-.03.09l-3.664 4.408a.15.15 0 0 1-.17.045.153.153 0 0 1-.099-.147l.047-1.918zm-5.346-4.42l.206-2a.15.15 0 1 1 .272-.075l3.559 4.902c.178.245.332.508.458.784.076.254.106.52.09.785l-.047 2.129a.153.153 0 0 1-.098.135.15.15 0 0 1-.162-.037l-2.72-2.976-1.679-1.934a.15.15 0 0 1-.035-.114l.156-1.6zm-3.715 2.945l2.794-4.153a.147.147 0 0 1 .178-.063.15.15 0 0 1 .094.165l-.268 2.604a.15.15 0 0 1-.07.113l-2.525 1.569a.153.153 0 0 1-.253-.088.157.157 0 0 1 .05-.147zm-1.084 6.972H32.16a.148.148 0 0 1-.14-.09.15.15 0 0 1 .031-.165l3.003-3.188a.147.147 0 0 1 .245.043l1.383 3.188a.154.154 0 0 1-.013.144.151.151 0 0 1-.127.068zm.945-.255l-1.64-3.792a.526.526 0 0 1-.035-.165.469.469 0 0 1 .074-.164c.054-.087.124-.185.182-.275a1.74 1.74 0 0 1 .16-.184 2.77 2.77 0 0 1 .353-.251l4.014-2.463a.15.15 0 0 1 .19.031l1.27 1.463a.115.115 0 0 1 0 .145l-4.273 5.69a.166.166 0 0 1-.295-.035zm6.278.255H38.9a.147.147 0 0 1-.135-.081.15.15 0 0 1 .014-.158l3.75-5.031a.147.147 0 0 1 .229 0l2.856 3.137a.158.158 0 0 1 0 .208l-1.73 1.906a.154.154 0 0 1-.12.02zm5.44 0h-3.99a.148.148 0 0 1-.14-.087.15.15 0 0 1 .027-.164l1.142-1.263a.154.154 0 0 1 .175-.035l2.84 1.294a.13.13 0 0 1-.054.255zm6.442 0H51.76a.652.652 0 0 1-.272-.059l-4.472-2.059a.15.15 0 0 1-.054-.235l3.885-4.663a.147.147 0 0 1 .237 0l4.686 6.78a.15.15 0 0 1 .01.157.148.148 0 0 1-.134.08zm.742-.682l-4.274-6.173a.15.15 0 0 1-.002-.173.147.147 0 0 1 .161-.058l2.662.655 1.46.36c.097.022.19.053.28.095.05.042.092.092.125.149l.12.188c.03.05.053.102.07.157.004.064.004.128 0 .192l-.33 4.53a.147.147 0 1 1-.272.078zm3.951.682h-2.813a.147.147 0 0 1-.109-.048.15.15 0 0 1-.038-.113l.275-3.839a.15.15 0 1 1 .276-.07l2.541 3.835a.15.15 0 0 1 .009.16.147.147 0 0 1-.14.075z"/>
        </g>
    </g>
</svg>
