<svg xmlns="http://www.w3.org/2000/svg" width="180" height="100" viewBox="0 0 180 100">
    <path fill-rule="nonzero" d="M45.18 40.522c1.601 0 3.058.365 4.37 1.094a7.895 7.895 0 0 1 3.09 3.078c.747 1.322 1.12 2.86 1.12 4.616 0 1.756-.373 3.295-1.12 4.617a7.895 7.895 0 0 1-3.09 3.077c-1.312.73-2.769 1.095-4.37 1.095-2.198 0-3.927-.688-5.186-2.063V64H35V40.776h4.77v1.967c1.238-1.481 3.041-2.221 5.41-2.221zm-.864 13.516c1.28 0 2.332-.429 3.153-1.285.822-.857 1.233-2.004 1.233-3.443 0-1.438-.41-2.586-1.233-3.442-.821-.857-1.872-1.285-3.153-1.285-1.28 0-2.332.428-3.153 1.285-.822.856-1.233 2.004-1.233 3.442 0 1.439.411 2.586 1.233 3.443.821.856 1.873 1.285 3.153 1.285zm20.97 4.06c-1.815 0-3.442-.375-4.883-1.126-1.44-.75-2.566-1.792-3.377-3.125-.811-1.332-1.217-2.845-1.217-4.537 0-1.692.406-3.204 1.217-4.537.81-1.332 1.936-2.374 3.377-3.125 1.44-.75 3.068-1.126 4.882-1.126 1.814 0 3.436.375 4.866 1.126 1.43.75 2.55 1.793 3.362 3.125.81 1.333 1.216 2.845 1.216 4.537 0 1.692-.405 3.205-1.216 4.537-.811 1.333-1.932 2.375-3.362 3.125-1.43.751-3.052 1.127-4.866 1.127zm0-4.06c1.28 0 2.33-.429 3.153-1.285.821-.857 1.232-2.004 1.232-3.443 0-1.438-.41-2.586-1.232-3.442-.822-.857-1.873-1.285-3.154-1.285-1.28 0-2.337.428-3.17 1.285-.832.856-1.248 2.004-1.248 3.442 0 1.439.416 2.586 1.249 3.443.832.856 1.889 1.285 3.17 1.285zm17.543-11.01c.597-.825 1.403-1.449 2.417-1.872 1.014-.423 2.182-.634 3.505-.634v4.568a18.185 18.185 0 0 0-1.12-.063c-1.43 0-2.55.397-3.362 1.19-.81.793-1.216 1.983-1.216 3.57v8.058h-4.994v-17.07h4.77v2.253zm20.617 13.992c-.491.36-1.094.63-1.809.809-.715.18-1.467.27-2.257.27-2.049 0-3.633-.519-4.754-1.555-1.12-1.036-1.68-2.56-1.68-4.569v-7.011h-2.658v-3.808h2.657V37h4.994v4.156h4.29v3.808h-4.29v6.948c0 .719.187 1.274.56 1.666.374.39.902.587 1.585.587.79 0 1.462-.212 2.017-.635l1.345 3.49zm13.542 0c-.491.36-1.094.63-1.809.809-.715.18-1.467.27-2.257.27-2.049 0-3.634-.519-4.754-1.555-1.12-1.036-1.68-2.56-1.68-4.569v-7.011h-2.658v-3.808h2.657V37h4.994v4.156h4.29v3.808h-4.29v6.948c0 .719.187 1.274.56 1.666.374.39.902.587 1.585.587.79 0 1.462-.212 2.017-.635l1.345 3.49zm10.468 1.079c-1.814 0-3.441-.376-4.882-1.127-1.44-.75-2.566-1.792-3.377-3.125-.811-1.332-1.217-2.845-1.217-4.537 0-1.692.406-3.204 1.217-4.537.81-1.332 1.937-2.374 3.377-3.125 1.44-.75 3.068-1.126 4.882-1.126 1.814 0 3.437.375 4.866 1.126 1.43.75 2.55 1.793 3.362 3.125.811 1.333 1.216 2.845 1.216 4.537 0 1.692-.405 3.205-1.216 4.537-.811 1.333-1.932 2.375-3.362 3.125-1.43.751-3.052 1.127-4.866 1.127zm0-4.061c1.28 0 2.332-.429 3.154-1.285.821-.857 1.232-2.004 1.232-3.443 0-1.438-.41-2.586-1.232-3.442-.822-.857-1.873-1.285-3.154-1.285-1.28 0-2.337.428-3.169 1.285-.832.856-1.249 2.004-1.249 3.442 0 1.439.417 2.586 1.249 3.443.832.856 1.889 1.285 3.17 1.285zm14.439 4.06c-.875 0-1.612-.295-2.21-.888-.597-.592-.896-1.332-.896-2.22 0-.91.3-1.645.897-2.206.597-.56 1.334-.84 2.209-.84s1.611.28 2.209.84c.597.56.896 1.296.896 2.205 0 .889-.299 1.63-.896 2.221-.598.593-1.334.889-2.21.889z"/>
</svg>
