<svg xmlns="http://www.w3.org/2000/svg" width="180" height="100" viewBox="0 0 180 100">
    <g fill="#585858" fill-rule="evenodd">
        <path d="M53.535 69.806c-.5-.776-.342-1.81.376-2.391 4.203-3.397 4.685-7.74 4.61-9.973a1.812 1.812 0 0 1 1.413-1.83c1.107-.253 2.18.557 2.223 1.692.113 3.009-.532 8.586-5.946 12.934a1.827 1.827 0 0 1-2.676-.432M38.44 66.448a1.812 1.812 0 0 1 1.956-1.425c5.375.57 8.785-2.16 10.311-3.792a1.813 1.813 0 0 1 2.295-.295c.96.604 1.147 1.936.374 2.768-2.047 2.207-6.447 5.695-13.35 4.94a1.826 1.826 0 0 1-1.586-2.196M30.14 53.4c.776-.501 1.81-.343 2.39.376 3.398 4.203 7.74 4.684 9.974 4.609a1.814 1.814 0 0 1 1.83 1.413c.252 1.108-.557 2.18-1.692 2.223-3.009.113-8.586-.532-12.934-5.946a1.826 1.826 0 0 1 .432-2.675M33.498 38.304a1.812 1.812 0 0 1 1.425 1.956c-.57 5.374 2.16 8.785 3.792 10.311.637.596.76 1.556.296 2.294-.605.962-1.936 1.148-2.77.375-2.207-2.047-5.695-6.447-4.94-13.35a1.826 1.826 0 0 1 2.197-1.586M46.546 30.004c.5.776.343 1.81-.376 2.39-4.203 3.398-4.684 7.74-4.609 9.974a1.813 1.813 0 0 1-1.413 1.83c-1.108.253-2.18-.556-2.223-1.692-.113-3.009.531-8.587 5.946-12.934a1.827 1.827 0 0 1 2.675.432M61.641 33.362a1.812 1.812 0 0 1-1.956 1.424c-5.374-.57-8.784 2.16-10.31 3.793a1.813 1.813 0 0 1-2.295.295c-.96-.605-1.148-1.935-.375-2.768 2.048-2.208 6.448-5.696 13.35-4.941a1.826 1.826 0 0 1 1.586 2.197M69.941 46.41c-.776.5-1.81.343-2.39-.376-3.398-4.203-7.74-4.684-9.973-4.609a1.813 1.813 0 0 1-1.83-1.413 1.815 1.815 0 0 1 1.692-2.223c3.008-.113 8.586.532 12.933 5.946.677.842.476 2.09-.432 2.675M66.584 61.506a1.813 1.813 0 0 1-1.425-1.956c.57-5.375-2.16-8.785-3.793-10.311a1.814 1.814 0 0 1-.295-2.295c.605-.961 1.936-1.147 2.769-.375 2.207 2.048 5.695 6.448 4.941 13.35a1.826 1.826 0 0 1-2.197 1.587"/>
        <g>
            <path d="M83.082 44.517c-.645 0-1.106.046-1.428.16v7.487c.346.16.898.345 1.543.345 1.958 0 2.787-1.497 2.787-3.985 0-2.556-.944-4.007-2.902-4.007m.714 10.503c-.921 0-1.658-.161-2.142-.392v4.79h-3.386V42.813c1.129-.46 2.81-.829 4.86-.829 3.847 0 6.265 2.372 6.265 6.496 0 3.961-2.119 6.54-5.597 6.54M98.146 44.54c-1.682 0-2.35 1.727-2.35 3.962 0 2.257.692 3.915 2.35 3.915 1.658 0 2.326-1.658 2.326-3.915 0-2.258-.668-3.962-2.326-3.962m0 10.549c-3.593 0-5.758-2.695-5.758-6.565 0-3.869 2.21-6.564 5.758-6.564 3.57 0 5.758 2.695 5.758 6.564 0 3.87-2.142 6.565-5.758 6.565M114.27 44.747c-.646-.161-1.037-.207-1.613-.207-.83 0-1.382.138-1.659.253v10.02h-3.408V42.926c1.082-.46 2.58-.875 4.537-.92.806-.024 1.889.091 2.741.275-.184.807-.391 1.636-.599 2.465M123.275 54.997c-3.8.138-4.376-2.35-4.514-5.022a381.569 381.569 0 0 1-.046-5.159h-1.613V42.26h1.613v-3.293h3.409v3.247h3.155v2.58h-3.155v5.021c0 1.728.207 2.442 1.312 2.534a3.663 3.663 0 0 0 1.843-.346c.092.83.184 1.636.277 2.465-.507.23-1.29.484-2.28.53M134.561 54.997c-3.8.138-4.376-2.35-4.514-5.022a376.594 376.594 0 0 1-.046-5.159h-1.613V42.26h1.613v-3.293h3.409v3.247h3.155v2.58h-3.155v5.021c0 1.728.207 2.442 1.312 2.534a3.663 3.663 0 0 0 1.843-.346l.276 2.465c-.506.23-1.29.484-2.28.53M145.11 44.54c-1.68 0-2.349 1.727-2.349 3.962 0 2.257.691 3.915 2.35 3.915 1.658 0 2.326-1.658 2.326-3.915 0-2.258-.668-3.962-2.327-3.962m0 10.549c-3.593 0-5.758-2.695-5.758-6.565 0-3.869 2.211-6.564 5.758-6.564 3.57 0 5.759 2.695 5.759 6.564 0 3.87-2.142 6.565-5.759 6.565"/>
        </g>
    </g>
</svg>
