<svg xmlns="http://www.w3.org/2000/svg" width="180" height="100" viewBox="0 0 180 100">
    <path fill-rule="nonzero" d="M75.301 67.332c1.906.601 3.812 1.404 5.719 2.207l8.628 3.31c.401.201.802.201 1.103 0l14.247-5.718c.2-.2.3-.2.3-.502V49.674c0-.301 0-.301-.3-.502-2.207-.903-4.415-1.705-6.622-2.709-2.508-1.103-5.217-2.106-7.825-3.21-.301-.2-.301-.2-.301.2v3.512c0 .502 0 .502-.502.301l-2.408-.903c-1.103-.401-2.207-.802-3.31-1.304-.201-.2-.302-.301-.302-.502v-5.92c0-.3.201-.3.301-.5 1.907-.803 4.014-1.606 5.92-2.409.3-.2.501 0 .602 0 2.207.803 4.314 1.706 6.32 2.509 2.71.903 5.418 2.107 8.127 3.21.3.2.3.2.3-.2V33.02c0-.201-.1-.301-.3-.301-2.207-.903-4.615-1.706-6.822-2.71-2.509-.902-5.217-2.106-7.826-3.009h-.502c-1.304.502-2.407.903-3.511 1.405-2.508 1.103-4.916 2.106-7.424 3.01-1.304.501-2.408.902-3.612 1.404-.2.2-.301.301-.301.502v17.758c.602.3 1.104.601 1.706.802 2.708 1.104 5.217 2.107 7.925 3.21l4.816 1.907c.301.2.301.2.301-.2v-3.512c0-.502.2-.502.502-.301 1.906.602 3.812 1.404 5.718 2.207.301 0 .301.2.301.3v5.92c0 .301 0 .301-.3.502-1.907.602-3.813 1.404-5.72 2.207h-.5c-.804-.3-1.405-.602-2.208-.903-3.01-1.304-6.22-2.408-9.23-3.612-.903-.3-2.107-.802-3.01-1.103-.301-.2-.301-.2-.301.2v8.428s0 .2.301.2z"/>
</svg>
