<svg xmlns="http://www.w3.org/2000/svg" width="180" height="100" viewBox="0 0 180 100">
    <path fill="#585858" fill-rule="nonzero" d="M76 67.6c1.9.6 3.8 1.4 5.7 2.2l8.6 3.3c.4.2.8.2 1.1 0l14.2-5.7c.2-.2.3-.2.3-.5V50c0-.3 0-.3-.3-.5-2.2-.9-4.4-1.7-6.6-2.7-2.5-1.1-5.2-2.1-7.8-3.2-.3-.2-.3-.2-.3.2v3.5c0 .5 0 .5-.5.3l-2.4-.9c-1.1-.4-2.2-.8-3.3-1.3-.2-.2-.3-.3-.3-.5V39c0-.3.2-.3.3-.5 1.9-.8 4-1.6 5.9-2.4.3-.2.5 0 .6 0 2.2.8 4.3 1.7 6.3 2.5 2.7.9 5.4 2.1 8.1 3.2.3.2.3.2.3-.2v-8.2c0-.2-.1-.3-.3-.3-2.2-.9-4.6-1.7-6.8-2.7-2.5-.9-5.2-2.1-7.8-3h-.5c-1.3.5-2.4.9-3.5 1.4-2.5 1.1-4.9 2.1-7.4 3-1.3.5-2.4.9-3.6 1.4-.2.2-.3.3-.3.5V51.4c.6.3 1.1.6 1.7.8 2.7 1.1 5.2 2.1 7.9 3.2l4.8 1.9c.3.2.3.2.3-.2v-3.5c0-.5.2-.5.5-.3 1.9.6 3.8 1.4 5.7 2.2.3 0 .3.2.3.3v5.9c0 .3 0 .3-.3.5-1.9.6-3.8 1.4-5.7 2.2h-.5c-.8-.3-1.4-.6-2.2-.9-3-1.3-6.2-2.4-9.2-3.6-.9-.3-2.1-.8-3-1.1-.3-.2-.3-.2-.3.2v8.4s0 .2.3.2z"/>
</svg>
