<svg xmlns="http://www.w3.org/2000/svg" width="75" height="75" viewBox="0 0 75 75">
    <g fill="#F00" fill-opacity="0" fill-rule="evenodd" stroke="#C45B26">
        <path d="M29 14c0-4.418-4.03-8-9-8s-9 3.582-9 8M11 14h18v15.858L33 74H7l4-44.142zM33 57h35v17H33"/>
        <path d="M30.6 48h26.412l10.426 9h-36.13M11 14h6v16h-6zM17 14h6v16h-6zM23 14h6v16h-6zM33.032 17.687l34.406-5.337M33.032 25l34.406 5.337M29.814 41.081H14.906M30.6 47H9M15.5 73.5h9V65a4.5 4.5 0 1 0-9 0v8.5zM37.5 62.5h5v5h-5zM47.5 62.5h5v5h-5zM57.5 62.5h5v5h-5z"/>
        <path stroke-width="2" d="M19.5 6V0"/>
    </g>
</svg>
