<svg xmlns="http://www.w3.org/2000/svg" width="1502" height="539" viewBox="0 0 1502 539">
    <defs>
        <linearGradient id="a" x1="56.872%" x2="52.15%" y1="47.71%" y2="51.087%">
            <stop offset="0%" stop-color="#FFF"/>
            <stop offset="100%" stop-color="#F27038"/>
        </linearGradient>
        <linearGradient id="b" x1="56.872%" x2="52.15%" y1="47.82%" y2="51.035%">
            <stop offset="0%" stop-color="#FFF"/>
            <stop offset="100%" stop-color="#F27038"/>
        </linearGradient>
        <linearGradient id="c" x1="56.872%" x2="52.15%" y1="47.914%" y2="50.99%">
            <stop offset="0%" stop-color="#FFF"/>
            <stop offset="100%" stop-color="#F27038"/>
        </linearGradient>
        <linearGradient id="d" x1="56.872%" x2="52.15%" y1="48%" y2="50.949%">
            <stop offset="0%" stop-color="#FFF"/>
            <stop offset="100%" stop-color="#F27038"/>
        </linearGradient>
        <linearGradient id="e" x1="56.872%" x2="52.15%" y1="48.098%" y2="50.903%">
            <stop offset="0%" stop-color="#FFF"/>
            <stop offset="100%" stop-color="#F27038"/>
        </linearGradient>
        <linearGradient id="f" x1="56.872%" x2="52.15%" y1="48.175%" y2="50.866%">
            <stop offset="0%" stop-color="#FFF"/>
            <stop offset="100%" stop-color="#F27038"/>
        </linearGradient>
        <linearGradient id="g" x1="56.872%" x2="52.15%" y1="48.253%" y2="50.829%">
            <stop offset="0%" stop-color="#FFF"/>
            <stop offset="100%" stop-color="#F27038"/>
        </linearGradient>
        <linearGradient id="h" x1="56.872%" x2="52.15%" y1="48.338%" y2="50.789%">
            <stop offset="0%" stop-color="#FFF"/>
            <stop offset="100%" stop-color="#F27038"/>
        </linearGradient>
        <linearGradient id="i" x1="56.872%" x2="52.15%" y1="48.408%" y2="50.756%">
            <stop offset="0%" stop-color="#FFF"/>
            <stop offset="100%" stop-color="#F27038"/>
        </linearGradient>
        <linearGradient id="j" x1="56.872%" x2="52.15%" y1="48.481%" y2="50.721%">
            <stop offset="0%" stop-color="#FFF"/>
            <stop offset="100%" stop-color="#F27038"/>
        </linearGradient>
        <linearGradient id="k" x1="56.872%" x2="52.15%" y1="48.55%" y2="50.689%">
            <stop offset="0%" stop-color="#FFF"/>
            <stop offset="100%" stop-color="#F27038"/>
        </linearGradient>
        <linearGradient id="l" x1="56.872%" x2="52.15%" y1="48.619%" y2="50.656%">
            <stop offset="0%" stop-color="#FFF"/>
            <stop offset="100%" stop-color="#F27038"/>
        </linearGradient>
        <linearGradient id="m" x1="56.872%" x2="52.15%" y1="48.677%" y2="50.628%">
            <stop offset="0%" stop-color="#FFF"/>
            <stop offset="100%" stop-color="#F27038"/>
        </linearGradient>
        <linearGradient id="n" x1="56.872%" x2="52.15%" y1="48.745%" y2="50.596%">
            <stop offset="0%" stop-color="#FFF"/>
            <stop offset="100%" stop-color="#F27038"/>
        </linearGradient>
        <linearGradient id="o" x1="56.872%" x2="52.15%" y1="48.811%" y2="50.565%">
            <stop offset="0%" stop-color="#FFF"/>
            <stop offset="100%" stop-color="#F27038"/>
        </linearGradient>
        <linearGradient id="p" x1="56.872%" x2="52.15%" y1="48.868%" y2="50.538%">
            <stop offset="0%" stop-color="#FFF"/>
            <stop offset="100%" stop-color="#F27038"/>
        </linearGradient>
        <linearGradient id="q" x1="56.872%" x2="52.15%" y1="48.933%" y2="50.507%">
            <stop offset="0%" stop-color="#FFF"/>
            <stop offset="100%" stop-color="#F27038"/>
        </linearGradient>
        <linearGradient id="r" x1="56.872%" x2="52.15%" y1="48.994%" y2="50.478%">
            <stop offset="0%" stop-color="#FFF"/>
            <stop offset="100%" stop-color="#F27038"/>
        </linearGradient>
        <linearGradient id="s" x1="56.872%" x2="52.15%" y1="49.04%" y2="50.456%">
            <stop offset="0%" stop-color="#FFF"/>
            <stop offset="100%" stop-color="#F27038"/>
        </linearGradient>
        <linearGradient id="t" x1="56.872%" x2="52.15%" y1="49.097%" y2="50.429%">
            <stop offset="0%" stop-color="#FFF"/>
            <stop offset="100%" stop-color="#F27038"/>
        </linearGradient>
        <linearGradient id="u" x1="56.872%" x2="52.15%" y1="49.15%" y2="50.404%">
            <stop offset="0%" stop-color="#FFF"/>
            <stop offset="100%" stop-color="#F27038"/>
        </linearGradient>
        <linearGradient id="v" x1="56.872%" x2="52.15%" y1="49.2%" y2="50.38%">
            <stop offset="0%" stop-color="#FFF"/>
            <stop offset="100%" stop-color="#F27038"/>
        </linearGradient>
        <linearGradient id="w" x1="56.872%" x2="52.15%" y1="49.244%" y2="50.359%">
            <stop offset="0%" stop-color="#FFF"/>
            <stop offset="100%" stop-color="#F27038"/>
        </linearGradient>
        <linearGradient id="x" x1="56.872%" x2="52.15%" y1="49.289%" y2="50.338%">
            <stop offset="0%" stop-color="#FFF"/>
            <stop offset="100%" stop-color="#F27038"/>
        </linearGradient>
        <linearGradient id="y" x1="56.872%" x2="52.15%" y1="49.334%" y2="50.316%">
            <stop offset="0%" stop-color="#FFF"/>
            <stop offset="100%" stop-color="#F27038"/>
        </linearGradient>
        <linearGradient id="z" x1="56.872%" x2="52.15%" y1="49.364%" y2="50.302%">
            <stop offset="0%" stop-color="#FFF"/>
            <stop offset="100%" stop-color="#F27038"/>
        </linearGradient>
        <linearGradient id="A" x1="56.872%" x2="52.15%" y1="49.408%" y2="50.281%">
            <stop offset="0%" stop-color="#FFF"/>
            <stop offset="100%" stop-color="#F27038"/>
        </linearGradient>
        <linearGradient id="B" x1="56.872%" x2="52.15%" y1="49.438%" y2="50.267%">
            <stop offset="0%" stop-color="#FFF"/>
            <stop offset="100%" stop-color="#F27038"/>
        </linearGradient>
        <linearGradient id="C" x1="56.872%" x2="52.15%" y1="49.474%" y2="50.25%">
            <stop offset="0%" stop-color="#FFF"/>
            <stop offset="100%" stop-color="#F27038"/>
        </linearGradient>
        <linearGradient id="D" x1="56.872%" x2="52.15%" y1="49.503%" y2="50.236%">
            <stop offset="0%" stop-color="#FFF"/>
            <stop offset="100%" stop-color="#F27038"/>
        </linearGradient>
        <linearGradient id="E" x1="56.872%" x2="52.15%" y1="49.536%" y2="50.22%">
            <stop offset="0%" stop-color="#FFF"/>
            <stop offset="100%" stop-color="#F27038"/>
        </linearGradient>
        <linearGradient id="F" x1="56.872%" x2="52.15%" y1="49.564%" y2="50.207%">
            <stop offset="0%" stop-color="#FFF"/>
            <stop offset="100%" stop-color="#F27038"/>
        </linearGradient>
        <linearGradient id="G" x1="56.872%" x2="52.15%" y1="49.587%" y2="50.196%">
            <stop offset="0%" stop-color="#FFF"/>
            <stop offset="100%" stop-color="#F27038"/>
        </linearGradient>
        <linearGradient id="H" x1="56.872%" x2="52.15%" y1="49.613%" y2="50.184%">
            <stop offset="0%" stop-color="#FFF"/>
            <stop offset="100%" stop-color="#F27038"/>
        </linearGradient>
        <linearGradient id="I" x1="56.872%" x2="52.15%" y1="49.64%" y2="50.171%">
            <stop offset="0%" stop-color="#FFF"/>
            <stop offset="100%" stop-color="#F27038"/>
        </linearGradient>
        <linearGradient id="J" x1="56.872%" x2="52.15%" y1="49.664%" y2="50.159%">
            <stop offset="0%" stop-color="#FFF"/>
            <stop offset="100%" stop-color="#F27038"/>
        </linearGradient>
        <linearGradient id="K" x1="56.872%" x2="52.15%" y1="49.666%" y2="50.158%">
            <stop offset="0%" stop-color="#FFF"/>
            <stop offset="100%" stop-color="#F27038"/>
        </linearGradient>
        <linearGradient id="L" x1="56.872%" x2="52.15%" y1="49.64%" y2="50.171%">
            <stop offset="0%" stop-color="#FFF"/>
            <stop offset="100%" stop-color="#F27038"/>
        </linearGradient>
        <linearGradient id="M" x1="56.872%" x2="52.15%" y1="49.61%" y2="50.185%">
            <stop offset="0%" stop-color="#FFF"/>
            <stop offset="100%" stop-color="#F27038"/>
        </linearGradient>
        <linearGradient id="N" x1="56.872%" x2="52.15%" y1="49.577%" y2="50.201%">
            <stop offset="0%" stop-color="#FFF"/>
            <stop offset="100%" stop-color="#F27038"/>
        </linearGradient>
    </defs>
    <g fill="none" fill-rule="evenodd" stroke-width=".691" opacity=".519">
        <path stroke="url(#a)" d="M1501.26 28.457c-17.568-6.245-35.454-11.551-53.716-15.753-252.394-58.061-497.82 108.65-714.72 265.226C515.924 434.505 264.524 594.616 14.953 522.713a450.297 450.297 0 0 1-13.967-4.272" transform="translate(-239)"/>
        <path stroke="url(#b)" d="M1501.076 43.003c-21.008-7.908-42.45-14.556-64.425-19.655-239.129-55.47-471.89 84.836-680.882 230.54a6452.696 6452.696 0 0 0-32.12 22.524C506.764 429.63 258.255 587.092 8.702 522.232a474.032 474.032 0 0 1-7.645-2.056" transform="translate(-239)"/>
        <path stroke="url(#c)" d="M1500.65 59.531c-24.745-9.852-50.058-18.075-76.102-24.187-238.14-55.863-469.848 77.036-678.87 219.502a5031.545 5031.545 0 0 0-32.175 22.064C496.713 427.168 250.942 582.705 1.723 524.392l-.733-.172" transform="translate(-239)"/>
        <path stroke="url(#d)" d="M1500.98 74.674c-28.645-11.992-58.003-21.972-88.328-29.177-237.23-56.335-467.964 69.322-677.088 208.74a4212.299 4212.299 0 0 0-32.236 21.635C488.473 422.065 247.548 574.776 1.081 526.703" transform="translate(-239)"/>
        <path stroke="url(#e)" d="M1500.942 90.778c-32.107-13.869-65.05-25.437-99.186-33.615-236.32-56.577-466.08 61.325-675.304 197.128a3523.572 3523.572 0 0 0-32.301 21.115C481.123 417.07 244.645 566.707 1.016 528.094" transform="translate(-239)"/>
        <path stroke="url(#f)" d="M1501.138 108.84c-35.768-15.924-72.496-29.28-110.679-38.542-235.448-57.055-464.274 53.585-673.633 186.341a3032.309 3032.309 0 0 0-32.37 20.688C473.439 414.957 241.414 562.253 1.023 532.677" transform="translate(-239)"/>
        <path stroke="url(#g)" d="M1501.131 124.584c-39.307-17.865-79.678-32.987-121.768-43.312-234.461-57.458-462.237 45.75-671.626 175.27a2658.481 2658.481 0 0 0-32.423 20.227C466.132 410.406 238.154 555.597.911 533.985" transform="translate(-239)"/>
        <path stroke="url(#h)" d="M1500.926 139.868c-42.857-19.672-86.863-36.534-132.861-47.907-233.592-57.688-460.146 38.211-669.957 163.692-10.89 6.515-21.753 13.05-32.49 19.709C458.128 404.056 234.51 547.119.748 533.442" transform="translate(-239)"/>
        <path stroke="url(#i)" d="M1500.854 157.969c-46.712-21.627-94.646-40.471-144.887-53.035-232.602-58.091-458.08 30.427-667.946 152.62-10.91 6.352-21.791 12.73-32.542 19.25C450.244 401.285 230.891 542.333 1 536.22" transform="translate(-239)"/>
        <path stroke="url(#j)" d="M1501.216 173.194c-50.217-23.175-101.687-43.77-155.745-57.417-231.654-58.405-456.095 22.592-666.052 141.31-10.928 6.18-21.83 12.388-32.6 18.761C443.296 396.292 227.452 535.652.81 535.865" transform="translate(-239)"/>
        <path stroke="url(#k)" d="M1500.887 188.106c-53.65-24.492-108.554-46.76-166.313-61.48-230.745-58.714-454.194 14.768-664.27 130.012-10.95 6.008-21.874 12.047-32.663 18.272C436.047 391.226 223.849 528.829.75 535.277" transform="translate(-239)"/>
        <path stroke="url(#l)" d="M1500.817 205.27c-58.147-26.156-117.524-50.682-180.142-66.787-229.833-59.016-452.292 6.954-662.483 118.727-10.973 5.834-21.921 11.708-32.728 17.783C426.798 386.68 219.232 521.836.891 535.26" transform="translate(-239)"/>
        <path stroke="url(#m)" d="M1501.027 219.918c-61.49-27.016-124.129-53.148-190.25-70.371-228.925-59.528-450.398-.853-660.702 107.835-10.995 5.682-21.964 11.406-32.792 17.355C420.398 382.892 216.114 517.069 1.135 535.73" transform="translate(-239)"/>
        <path stroke="url(#n)" d="M1501.025 235.427c-65.306-27.726-131.644-55.59-201.746-74.02-227.974-59.835-448.426-8.676-658.805 96.549-11.015 5.509-22.005 11.068-32.848 16.867C412.891 378.942 212.204 511.474 1.01 535.329" transform="translate(-239)"/>
        <path stroke="url(#o)" d="M1501.096 249.832c-69.379-28.185-139.612-57.839-213.905-77.557-226.986-60.134-446.384-16.485-656.797 85.28-11.032 5.336-22.043 10.727-32.901 16.376C405.108 373.994 208.156 504.787.954 533.629" transform="translate(-239)"/>
        <path stroke="url(#p)" d="M1501.348 264.285a3926.877 3926.877 0 0 1-9.244-3.537c-70.598-27.424-141.912-57.216-217.217-77.46-226.119-60.666-444.576-24.375-655.128 74.316-11.057 5.182-22.09 10.429-32.97 15.95-189.763 96.263-382.77 225.537-585.685 259.442" transform="translate(-239)"/>
        <path stroke="url(#q)" d="M1500.771 278.666a2670.83 2670.83 0 0 1-19.837-7.19c-70.71-25.946-141.91-55.173-216.95-75.49-225.205-60.86-442.69-32.135-653.344 62.935-11.077 5-22.13 10.07-33.032 15.43-187.604 92.252-377.211 219.722-576.43 257.75" transform="translate(-239)"/>
        <path stroke="url(#r)" d="M1500.863 292.28a2130.863 2130.863 0 0 1-32.096-10.905c-70.766-24.658-141.91-53.244-216.685-73.679-224.294-61.173-440.805-39.937-651.56 51.72-11.1 4.828-22.173 9.737-33.093 14.948C382.209 362.76 196.177 488.504.877 530.59" transform="translate(-239)"/>
        <path stroke="url(#s)" d="M1500.93 303.993a1772.627 1772.627 0 0 1-43.333-13.78c-70.818-23.504-141.907-51.604-216.418-72.268-223.382-61.828-438.926-47.996-649.772 40.744-11.125 4.683-22.22 9.452-33.16 14.543C375.244 358.395 192.565 483.253.944 529.245" transform="translate(-239)"/>
        <path stroke="url(#t)" d="M1500.977 315.55a1525.582 1525.582 0 0 1-54.179-15.89c-70.859-22.182-141.88-49.6-216.111-70.35-222.437-62.054-436.977-55.748-647.879 29.455-11.144 4.504-22.258 9.105-33.216 14.04-180.897 81.46-360.376 204.683-548.488 253.939" transform="translate(-239)"/>
        <path stroke="url(#u)" d="M1501.012 327.23c-22.67-5.402-45.522-11.516-68.635-18.342-70.889-20.937-141.832-47.764-215.771-68.668-221.451-62.488-434.953-63.684-645.876 18.276-11.164 4.338-22.292 8.786-33.268 13.58-177.698 77.631-352.955 198.64-536.376 251.605" transform="translate(-239)"/>
        <path stroke="url(#v)" d="M1501.06 337.219c-26.014-5.33-52.26-11.658-78.854-19.017-70.942-19.629-141.83-45.78-215.504-66.776-220.54-62.727-433.08-71.42-644.09 7.049-11.188 4.16-22.338 8.441-33.332 13.08C353.545 345.711 181.26 465.188 1.092 520.87" transform="translate(-239)"/>
        <path stroke="url(#w)" d="M1501.05 346.81c-29.862-5.059-60.016-11.507-90.639-19.44-70.984-18.39-141.804-43.951-215.2-65.108-219.59-63.177-431.137-79.395-642.197-4.15-11.21 3.995-22.377 8.125-33.39 12.625C346.3 341.552 177.38 459.48.921 518.022" transform="translate(-239)"/>
        <path stroke="url(#x)" d="M1500.98 356.534c-33.273-4.438-66.898-10.675-101.115-18.905-71.046-17.09-141.825-41.98-214.97-63.228-218.717-63.418-429.34-87.113-640.521-15.329-11.233 3.818-22.421 7.782-33.46 12.127C339.798 338.571 174.013 454.667.995 515.611" transform="translate(-239)"/>
        <path stroke="url(#y)" d="M1501.007 366.525c-37.564-3.517-75.556-9.403-114.315-18.023-71.098-15.812-141.822-40.057-214.701-61.42-217.807-63.729-427.473-94.911-638.737-26.498-11.257 3.645-22.465 7.45-33.522 11.646C331.642 336.009 169.715 449.603.986 512.988" transform="translate(-239)"/>
        <path stroke="url(#z)" d="M1501.103 373.446c-40.644-2.325-81.78-7.511-123.828-16.136-71.127-14.59-141.773-38.273-214.36-59.824-216.823-64.259-425.463-103.058-636.736-37.78-11.276 3.484-22.498 7.142-33.574 11.202C326.14 331.933 166.743 444.798.734 510.323" transform="translate(-239)"/>
        <path stroke="url(#A)" d="M1500.993 381.478c-45.071-.667-90.721-4.9-137.511-13.635-71.165-13.284-141.747-36.269-214.057-57.886-215.874-64.427-423.524-110.625-634.84-48.845-11.299 3.302-22.537 6.795-33.633 10.696C317.83 329.165 162.5 438.893 1.018 506.275" transform="translate(-239)"/>
        <path stroke="url(#B)" d="M1500.941 387.927c-48.646 1.2-97.954-1.809-148.63-10.292-71.193-12.194-141.746-34.48-213.791-56.294-214.962-64.974-421.658-118.849-633.052-60.198-11.325 3.142-22.583 6.489-33.696 10.253C311.173 325.79 159.12 433.764 1.242 503.06" transform="translate(-239)"/>
        <path stroke="url(#C)" d="M1501.024 392.963c-52.664 3.53-106.083 2.104-161.127-6.12-71.224-10.9-141.694-32.52-213.449-54.42C912.47 267.22 706.796 205.922 495.396 261.16c-11.343 2.963-22.615 6.15-33.747 9.76C303.759 322.107 155.11 427.615.983 498.281" transform="translate(-239)"/>
        <path stroke="url(#D)" d="M1501 398.083c-56.357 6.142-113.567 6.588-172.656-1.212-71.291-9.66-141.715-30.701-213.216-52.782-213.105-65.713-417.86-134.707-629.378-82.64-11.366 2.798-22.66 5.836-33.816 9.306C296.724 319.023 151.411 422.41.967 494.538" transform="translate(-239)"/>
        <path stroke="url(#E)" d="M1501.103 401.251c-59.952 9.01-120.869 11.628-183.932 4.45-71.347-8.351-141.714-28.676-212.951-50.786-212.192-65.772-415.999-141.977-627.592-93.427-11.391 2.613-22.701 5.485-33.878 8.792C290.158 315.405 148.09 416.009 1.222 488.904" transform="translate(-239)"/>
        <path stroke="url(#F)" d="M1500.998 403.586c-63.984 12.455-129.067 17.71-196.619 11.189-71.39-7.102-141.687-26.846-212.648-49.137-211.245-66.275-414.06-150.196-625.696-104.819-11.412 2.448-22.74 5.173-33.937 8.338-149.548 42.26-288.046 140.308-430.951 214.2" transform="translate(-239)"/>
        <path stroke="url(#G)" d="M1501.047 406.55c-67.326 15.945-135.898 24.012-207.226 18.364-71.458-5.848-141.708-25.008-212.415-47.476-210.371-66.772-412.268-158.441-624.02-116.25-11.439 2.28-22.786 4.86-34.005 7.88C276.18 308.709 140.615 404.799.93 479.597" transform="translate(-239)"/>
        <path stroke="url(#H)" d="M1501.028 407.179c-71.334 20.125-144.107 31.626-219.998 26.934-71.501-4.588-141.685-23.159-212.111-45.805C859.496 321.043 658.586 221.6 446.792 260.593c-11.46 2.11-22.827 4.544-34.064 7.42C268.63 304.903 136.603 398.236.853 473.586" transform="translate(-239)"/>
        <path stroke="url(#I)" d="M1500.957 407.95c-74.851 24.257-151.361 39.331-231.333 35.802-71.533-3.303-141.634-21.17-211.772-43.844-208.438-67.33-408.324-173.898-620.124-138.337-11.481 1.926-22.861 4.2-34.118 6.914C262.214 302.589 133.345 392.972 1.086 468.302" transform="translate(-239)"/>
        <path stroke="url(#J)" d="M1501.121 406.812c-78.771 29.097-159.485 48.437-244.058 46.166-71.602-2.038-141.656-19.315-211.54-42.166C837.958 342.992 638.938 228.292 427.076 261a480.502 480.502 0 0 0-34.186 6.453C254.722 299.187 129.327 386.533.958 461.865" transform="translate(-239)"/>
        <path stroke="url(#K)" d="M1500.907 408.124c-1.013.417-2.025.832-3.038 1.246-81.006 33.09-164.25 56.124-251.595 55.297-71.644-.772-141.63-17.418-211.237-40.396-206.616-68.167-404.626-190.359-616.554-160.99a467.995 467.995 0 0 0-34.243 5.977C248.555 298.498 126.077 383.406.93 458.754" transform="translate(-239)"/>
        <path stroke="url(#L)" d="M1501.006 404.188c-4.599 2.081-9.205 4.13-13.82 6.146-80.817 35.63-164.248 60.874-251.7 61.556-71.69.498-141.605-15.497-210.936-38.567-205.668-68.41-402.668-197.892-614.66-171.903a455.598 455.598 0 0 0-34.3 5.494C242.353 293.696 122.727 376.042.734 451.154" transform="translate(-239)"/>
        <path stroke="url(#M)" d="M1500.946 402.484a1226.091 1226.091 0 0 1-25.445 12.306c-80.718 38.033-164.241 65.739-251.804 67.932-71.733 1.764-141.578-13.612-210.63-36.82-204.723-68.795-400.713-205.822-612.77-183.153a444.34 444.34 0 0 0-34.357 5.023C235.71 292.118 119.336 371.46.987 446.066" transform="translate(-239)"/>
        <path stroke="url(#N)" d="M1501.078 398.087c-92.066 49.994-187.912 89.622-289.168 93.903-284.441 12.032-537.49-255.672-821.204-229.765C249.174 275.15 126 358.699.927 439.352" transform="translate(-239)"/>
    </g>
</svg>
