<svg xmlns="http://www.w3.org/2000/svg" width="170" height="34" viewBox="0 0 170 34">
    <defs>
        <linearGradient id="a" x1="67.169%" x2="38.431%" y1="70.888%" y2="12.173%">
            <stop offset="0%" stop-color="#F27038"/>
            <stop offset="100%" stop-color="#C45B26"/>
        </linearGradient>
        <linearGradient id="b" x1="6.418%" x2="114.19%" y1="77.576%" y2="0%">
            <stop offset="0%" stop-color="#F27038"/>
            <stop offset="100%" stop-color="#F4B544"/>
        </linearGradient>
        <linearGradient id="c" x1="43.057%" x2="56.779%" y1="0%" y2="100%">
            <stop offset="0%" stop-color="#1AB381"/>
            <stop offset="100%" stop-color="#008D5F"/>
        </linearGradient>
    </defs>
    <g fill="none" fill-rule="evenodd">
        <path fill="url(#a)" d="M29.773 25.81c-4.384 7.546-14.066 10.148-21.625 5.812C.59 27.285-1.983 17.652 2.401 10.104c4.384-7.546 7.583.75 15.142 5.087 7.559 4.337 16.614 3.072 12.23 10.618z" transform="rotate(-9 15.246 17.614)"/>
        <path fill="url(#b)" d="M6.243 30.776c-7.104-5.323 2.085-7.708 7.439-14.772C19.035 8.939 18.525-.13 25.629 5.194c7.104 5.323 8.524 15.365 3.17 22.43-5.353 7.064-15.452 8.476-22.556 3.152z" transform="rotate(-9 15.012 17.812)"/>
        <path fill="url(#c)" d="M12.733 0c.172.09.342.19.508.297 2.757 1.79 3.599 5.388 1.88 8.035-.15.23-.314.446-.49.646a6.273 6.273 0 0 1-.509-.297c-2.757-1.79-3.599-5.388-1.88-8.034.15-.23.314-.446.49-.647z" transform="rotate(-10 15.303 17.888)"/>
        <path fill="#282625" fill-rule="nonzero" d="M44.445 23H42.3v-8.13h-2.925v-1.875h7.98v1.875h-2.91V23zm9.729 0h-1.92v-.93c-.57.72-1.35 1.11-2.235 1.11-1.815 0-3.21-1.38-3.21-3.81 0-2.355 1.365-3.795 3.21-3.795.855 0 1.65.36 2.235 1.11v-.93h1.92V23zm-3.555-1.515c.63 0 1.32-.345 1.635-.825v-2.55c-.315-.48-1.005-.84-1.635-.84-1.095 0-1.845.855-1.845 2.1 0 1.26.75 2.115 1.845 2.115zM62.942 23h-1.92v-4.38c0-1.005-.525-1.35-1.335-1.35-.75 0-1.32.42-1.65.84V23h-1.905v-7.245h1.905v.93c.465-.54 1.365-1.11 2.535-1.11 1.605 0 2.37.9 2.37 2.31V23zm4.914 2.94c-1.23 0-2.205-.285-3.12-1.08l.855-1.365c.585.63 1.365.885 2.265.885.915 0 2.01-.39 2.01-1.86v-.705c-.57.72-1.35 1.125-2.25 1.125-1.8 0-3.195-1.26-3.195-3.675 0-2.37 1.365-3.69 3.195-3.69.87 0 1.665.36 2.25 1.11v-.93h1.905v6.765c0 2.745-2.13 3.42-3.915 3.42zm.375-4.68c.615 0 1.305-.36 1.635-.825V18.08c-.33-.465-1.02-.81-1.635-.81-1.095 0-1.845.75-1.845 1.995s.75 1.995 1.845 1.995zm8.903 1.92c-2.205 0-3.87-1.485-3.87-3.81 0-2.1 1.56-3.795 3.75-3.795 2.175 0 3.63 1.62 3.63 3.975V20h-5.385c.135.885.855 1.62 2.085 1.62.615 0 1.455-.255 1.92-.705l.855 1.26c-.72.66-1.86 1.005-2.985 1.005zm1.68-4.5c-.06-.69-.54-1.545-1.8-1.545-1.185 0-1.695.825-1.77 1.545h3.57zM83.998 23h-1.905v-7.245h1.905v.975c.525-.63 1.41-1.155 2.31-1.155v1.86c-.135-.03-.3-.045-.525-.045-.63 0-1.47.36-1.785.825V23zm4.508-8.025c-.615 0-1.125-.51-1.125-1.14 0-.63.51-1.125 1.125-1.125.63 0 1.14.495 1.14 1.125s-.51 1.14-1.14 1.14zm.96 8.025h-1.905v-7.245h1.905V23zm8.769 0h-1.92v-4.38c0-1.005-.525-1.35-1.335-1.35-.75 0-1.32.42-1.65.84V23h-1.905v-7.245h1.905v.93c.465-.54 1.365-1.11 2.535-1.11 1.605 0 2.37.9 2.37 2.31V23zm5.348.18c-2.205 0-3.87-1.485-3.87-3.81 0-2.1 1.56-3.795 3.75-3.795 2.175 0 3.63 1.62 3.63 3.975V20h-5.385c.135.885.855 1.62 2.085 1.62.615 0 1.455-.255 1.92-.705l.855 1.26c-.72.66-1.86 1.005-2.985 1.005zm1.68-4.5c-.06-.69-.54-1.545-1.8-1.545-1.185 0-1.695.825-1.77 1.545h3.57zM121.465 23h-2.055l-4.77-6.525V23h-2.13V12.995h2.19l4.635 6.285v-6.285h2.13V23zm5.409.18c-2.205 0-3.87-1.485-3.87-3.81 0-2.1 1.56-3.795 3.75-3.795 2.175 0 3.63 1.62 3.63 3.975V20h-5.385c.135.885.855 1.62 2.085 1.62.615 0 1.455-.255 1.92-.705l.855 1.26c-.72.66-1.86 1.005-2.985 1.005zm1.68-4.5c-.06-.69-.54-1.545-1.8-1.545-1.185 0-1.695.825-1.77 1.545h3.57zm5.708 4.5c-1.335 0-2.04-.69-2.04-1.995V17.42h-1.2v-1.665h1.2v-1.98h1.905v1.98h1.47v1.665h-1.47v3.255c0 .465.24.81.66.81.285 0 .555-.105.66-.225l.405 1.455c-.285.255-.795.465-1.59.465zm11.109-.18h-2.04l-1.53-4.935L140.27 23h-2.04l-2.205-7.245h1.98l1.35 4.875 1.59-4.875h1.695l1.59 4.875 1.35-4.875h1.995L145.37 23zm6.578.18c-2.385 0-3.825-1.755-3.825-3.81s1.44-3.795 3.825-3.795c2.4 0 3.84 1.74 3.84 3.795 0 2.055-1.44 3.81-3.84 3.81zm0-1.695c1.2 0 1.86-.975 1.86-2.115 0-1.125-.66-2.1-1.86-2.1-1.185 0-1.845.975-1.845 2.1 0 1.14.66 2.115 1.845 2.115zM159.188 23h-1.905v-7.245h1.905v.975c.525-.63 1.41-1.155 2.31-1.155v1.86c-.135-.03-.3-.045-.525-.045-.63 0-1.47.36-1.785.825V23zm10.643 0h-2.385l-1.92-2.79-.87.93V23h-1.905V12.995h1.905v5.985l2.745-3.225h2.34l-2.865 3.285 2.955 3.96z"/>
    </g>
</svg>
