<svg xmlns="http://www.w3.org/2000/svg" width="191" height="50" viewBox="0 0 191 50">
    <defs>
        <linearGradient id="a" x1="55.501%" x2="12.857%" y1="61.081%" y2="9.046%">
            <stop offset="0%" stop-color="#F27038"/>
            <stop offset="100%" stop-color="#C45B26"/>
        </linearGradient>
        <linearGradient id="b" x1="2.214%" x2="114.19%" y1="106.093%" y2="0%">
            <stop offset="0%" stop-color="#E05B21"/>
            <stop offset="100%" stop-color="#F4B544"/>
        </linearGradient>
        <linearGradient id="c" x1="43.057%" x2="56.779%" y1="0%" y2="100%">
            <stop offset="0%" stop-color="#1AB381"/>
            <stop offset="100%" stop-color="#008D5F"/>
        </linearGradient>
    </defs>
    <g fill="none" fill-rule="evenodd">
        <path fill="url(#a)" d="M37.216 32.262c-5.48 9.433-17.582 12.686-27.03 7.265C.737 34.106-2.48 22.064 3 12.63c5.48-9.434 9.48.937 18.928 6.358 9.448 5.42 20.768 3.84 15.287 13.273z" transform="rotate(-9 45.088 .065)"/>
        <path fill="url(#b)" d="M7.907 37.884c-8.88-6.654 2.607-9.635 9.298-18.465C23.897 10.589 23.26-.748 32.14 5.906c8.88 6.654 10.654 19.207 3.963 28.038-6.692 8.83-19.316 10.594-28.196 3.94z" transform="rotate(-9 44.789 .379)"/>
        <path fill="url(#c)" d="M15.916 0c.215.113.427.236.636.372 3.446 2.238 4.498 6.734 2.35 10.042a6.921 6.921 0 0 1-.614.809 7.841 7.841 0 0 1-.635-.372c-3.447-2.238-4.499-6.734-2.35-10.043.187-.288.392-.557.613-.808z" transform="rotate(-10 42.732 2.803)"/>
        <path fill="#282625" fill-rule="nonzero" d="M55.036 23.367H51.42v-1.834h9.333v1.834h-3.617v9.966h-2.1v-9.966zm9.772 8.95h-.05c-.2.355-.523.647-.967.875-.445.227-.95.341-1.517.341-.322 0-.658-.041-1.008-.125a3.001 3.001 0 0 1-.967-.416 2.423 2.423 0 0 1-.733-.767c-.195-.317-.292-.708-.292-1.175 0-.6.17-1.078.509-1.433.338-.356.775-.628 1.308-.817a7.375 7.375 0 0 1 1.775-.375c.65-.061 1.286-.092 1.908-.092v-.2c0-.5-.18-.87-.541-1.108-.362-.239-.792-.358-1.292-.358-.422 0-.828.089-1.217.266a3.275 3.275 0 0 0-.966.65l-1.034-1.216c.456-.423.98-.74 1.575-.95a5.368 5.368 0 0 1 1.809-.317c.71 0 1.297.1 1.758.3.461.2.825.461 1.092.783.266.323.452.684.558 1.084.105.4.158.8.158 1.2v4.866h-1.866v-1.016zm-.034-2.634h-.45c-.322 0-.66.014-1.016.042a4.414 4.414 0 0 0-.984.183 2.1 2.1 0 0 0-.75.4c-.2.173-.3.409-.3.709 0 .189.042.347.125.475a.96.96 0 0 0 .325.308c.134.078.284.133.45.167.167.033.334.05.5.05.69 0 1.211-.184 1.567-.55.355-.367.533-.867.533-1.5v-.284zm3.655-4.35h1.9v1.284h.033c.178-.4.486-.753.925-1.059.44-.305.959-.458 1.559-.458.522 0 .969.092 1.341.275.372.183.678.425.917.725s.414.644.525 1.033c.111.39.167.79.167 1.2v5h-2V28.9c0-.233-.017-.478-.05-.733a1.98 1.98 0 0 0-.217-.692 1.437 1.437 0 0 0-.458-.508c-.195-.134-.453-.2-.775-.2-.323 0-.6.064-.834.191a1.77 1.77 0 0 0-.575.492c-.15.2-.264.43-.341.692a2.76 2.76 0 0 0-.117.791v4.4h-2v-8zm17.255 0v7.284c0 .722-.09 1.375-.267 1.958a3.792 3.792 0 0 1-.825 1.483 3.72 3.72 0 0 1-1.408.942c-.567.222-1.24.333-2.017.333A7.076 7.076 0 0 1 79.075 37a6.416 6.416 0 0 1-1.008-.417 4.862 4.862 0 0 1-.867-.566l1.15-1.55c.39.366.828.647 1.317.841.489.195.983.292 1.483.292.478 0 .88-.07 1.209-.208.327-.14.588-.33.783-.575.194-.245.333-.534.417-.867.083-.333.125-.7.125-1.1v-.583h-.034a2.812 2.812 0 0 1-1.108.891c-.45.206-.953.309-1.508.309-.6 0-1.145-.111-1.634-.334a3.703 3.703 0 0 1-1.241-.9 4.122 4.122 0 0 1-.792-1.325 4.557 4.557 0 0 1-.283-1.608c0-.578.091-1.122.275-1.633a3.99 3.99 0 0 1 .783-1.334c.339-.377.75-.677 1.233-.9A3.845 3.845 0 0 1 81 25.1c.567 0 1.095.117 1.584.35.488.233.877.594 1.166 1.083h.034v-1.2h1.9zm-4.267 1.4c-.367 0-.692.067-.975.2a2.11 2.11 0 0 0-.717.542 2.435 2.435 0 0 0-.45.808 3.092 3.092 0 0 0-.158 1c0 .323.053.634.158.934.106.3.256.57.45.808a2.2 2.2 0 0 0 .717.575c.283.144.603.217.958.217.367 0 .697-.07.992-.209.294-.139.544-.325.75-.558.205-.233.364-.503.475-.808a2.902 2.902 0 0 0 0-1.942 2.486 2.486 0 0 0-.475-.817 2.211 2.211 0 0 0-1.725-.75zm11.721 1.8c0-.255-.036-.5-.108-.733a1.678 1.678 0 0 0-.342-.617 1.668 1.668 0 0 0-.591-.425 2.068 2.068 0 0 0-.842-.158c-.6 0-1.108.18-1.525.542a1.975 1.975 0 0 0-.692 1.391h4.1zm2 .9v.267c0 .089-.005.178-.016.267h-6.084a1.98 1.98 0 0 0 .734 1.408c.21.172.45.308.716.408.267.1.545.15.834.15.5 0 .922-.091 1.266-.275.345-.183.628-.436.85-.758l1.334 1.067c-.79 1.066-1.934 1.6-3.434 1.6a4.884 4.884 0 0 1-1.716-.292 4.051 4.051 0 0 1-1.359-.825 3.718 3.718 0 0 1-.9-1.308c-.216-.517-.325-1.103-.325-1.759 0-.644.109-1.23.325-1.758.217-.528.514-.978.892-1.35a3.988 3.988 0 0 1 1.342-.867 4.49 4.49 0 0 1 1.675-.308c.555 0 1.07.092 1.541.275.473.183.88.456 1.225.817.345.36.614.81.809 1.35.194.539.291 1.17.291 1.891zm1.355-4.1h1.917v1.334h.033c.222-.467.533-.845.933-1.134.4-.289.867-.433 1.4-.433.078 0 .161.003.25.008.09.006.167.02.234.042v1.833a2.354 2.354 0 0 0-.617-.083c-.456 0-.822.083-1.1.25a2 2 0 0 0-.65.6 2.149 2.149 0 0 0-.317.717 2.788 2.788 0 0 0-.083.583v4.283h-2v-8zm5.521 0h2v8h-2v-8zm-.283-2.716c0-.323.12-.603.358-.842.24-.239.542-.358.909-.358.366 0 .675.114.925.341.25.228.375.514.375.859 0 .344-.125.63-.375.858-.25.228-.559.342-.925.342-.367 0-.67-.12-.909-.359a1.152 1.152 0 0 1-.358-.841zm4.138 2.716h1.9v1.284h.033c.178-.4.486-.753.925-1.059.44-.305.959-.458 1.559-.458.522 0 .97.092 1.341.275.373.183.678.425.917.725s.414.644.525 1.033c.111.39.167.79.167 1.2v5h-2V28.9c0-.233-.017-.478-.05-.733a1.98 1.98 0 0 0-.217-.692 1.437 1.437 0 0 0-.458-.508c-.195-.134-.453-.2-.775-.2-.323 0-.6.064-.834.191a1.77 1.77 0 0 0-.575.492c-.15.2-.264.43-.341.692a2.76 2.76 0 0 0-.117.791v4.4h-2v-8zm14.755 3.2c0-.255-.036-.5-.109-.733a1.678 1.678 0 0 0-.341-.617 1.668 1.668 0 0 0-.592-.425 2.068 2.068 0 0 0-.842-.158c-.6 0-1.108.18-1.525.542a1.975 1.975 0 0 0-.691 1.391h4.1zm2 .9v.267c0 .089-.006.178-.017.267h-6.083a1.98 1.98 0 0 0 .733 1.408c.211.172.45.308.717.408.266.1.544.15.833.15.5 0 .922-.091 1.267-.275.344-.183.628-.436.85-.758l1.333 1.067c-.789 1.066-1.933 1.6-3.433 1.6a4.884 4.884 0 0 1-1.717-.292 4.051 4.051 0 0 1-1.358-.825 3.718 3.718 0 0 1-.9-1.308c-.217-.517-.325-1.103-.325-1.759 0-.644.108-1.23.325-1.758.216-.528.514-.978.891-1.35a3.988 3.988 0 0 1 1.342-.867 4.49 4.49 0 0 1 1.675-.308c.556 0 1.07.092 1.542.275.472.183.88.456 1.225.817.344.36.614.81.808 1.35.195.539.292 1.17.292 1.891zM137.477 31.583h.033v-10.05h1.2v11.8h-1.5l-6.867-10.15h-.033v10.15h-1.2v-11.8h1.5l6.867 10.05zm9.215-2.75c-.034-.733-.27-1.341-.709-1.825-.439-.483-1.064-.725-1.875-.725-.377 0-.727.07-1.05.209a2.817 2.817 0 0 0-1.433 1.383 2.633 2.633 0 0 0-.25.958h5.317zm1.15.367v.25c0 .089-.006.183-.017.283h-6.467c.011.39.09.756.234 1.1.144.345.344.645.6.9.255.256.555.459.9.609.344.15.716.225 1.116.225.59 0 1.098-.136 1.525-.409.428-.272.753-.586.975-.941l.85.666c-.466.59-.98 1.011-1.541 1.267a4.311 4.311 0 0 1-1.809.383 4.148 4.148 0 0 1-1.608-.308 3.767 3.767 0 0 1-1.275-.858 4.066 4.066 0 0 1-.842-1.3 4.254 4.254 0 0 1-.308-1.634c0-.589.1-1.133.3-1.633.2-.5.478-.933.833-1.3a3.832 3.832 0 0 1 2.8-1.167c.611 0 1.15.103 1.617.309.467.205.856.483 1.167.833.31.35.547.758.708 1.225.161.467.242.967.242 1.5zm4.915-2.717h-2.2v4.55c0 .29.027.528.083.717.056.189.136.336.242.442.105.105.23.177.375.216.144.04.3.059.466.059.156 0 .32-.023.492-.067.172-.044.336-.106.492-.183l.05.983c-.2.078-.409.136-.625.175a4.016 4.016 0 0 1-.709.058 2.88 2.88 0 0 1-.666-.083 1.687 1.687 0 0 1-.65-.317 1.732 1.732 0 0 1-.492-.633c-.128-.267-.192-.617-.192-1.05v-4.867h-1.616v-.95h1.616v-2.2h1.134v2.2h2.2v.95zm.881-.95l1.884 6.334h.033l2.1-6.334h1.1l2.133 6.334h.034l1.866-6.334h1.2l-2.466 7.8h-1.234l-2.083-6.316h-.033l-2.05 6.316h-1.234l-2.466-7.8h1.216zm18.999 3.9c0 .59-.103 1.134-.309 1.634a3.93 3.93 0 0 1-.858 1.3 3.89 3.89 0 0 1-1.317.858 4.471 4.471 0 0 1-1.683.308c-.6 0-1.156-.102-1.667-.308a3.89 3.89 0 0 1-1.316-.858 3.93 3.93 0 0 1-.859-1.3 4.254 4.254 0 0 1-.308-1.634c0-.589.103-1.133.308-1.633.206-.5.492-.933.859-1.3a3.89 3.89 0 0 1 1.316-.858 4.426 4.426 0 0 1 1.667-.309c.611 0 1.172.103 1.683.309.511.205.95.491 1.317.858s.653.8.858 1.3c.206.5.309 1.044.309 1.633zm-1.2 0c0-.433-.07-.841-.209-1.225a3.001 3.001 0 0 0-.591-1 2.8 2.8 0 0 0-.934-.675 2.947 2.947 0 0 0-1.233-.25 2.89 2.89 0 0 0-1.225.25c-.361.167-.67.392-.925.675a3.001 3.001 0 0 0-.592 1 3.568 3.568 0 0 0-.208 1.225c0 .434.07.842.208 1.225.14.384.336.717.592 1 .256.284.564.506.925.667.361.161.77.242 1.225.242.456 0 .867-.08 1.233-.242.367-.161.678-.383.934-.667.255-.283.452-.616.591-1 .14-.383.209-.791.209-1.225zm2.598-2.183a25.492 25.492 0 0 0-.067-1.717h1.084a15.09 15.09 0 0 1 .067 1.333h.033a2.702 2.702 0 0 1 1-1.108 2.731 2.731 0 0 1 1.5-.425c.144 0 .275.006.391.017.117.011.236.033.359.067l-.15 1.066a3.296 3.296 0 0 0-.8-.1c-.3 0-.59.056-.867.167-.278.111-.52.286-.725.525a2.766 2.766 0 0 0-.5.917c-.128.372-.192.82-.192 1.341v4h-1.133V27.25zm6.132 1.8h.05l3.6-3.517h1.633l-3.933 3.567 4.333 4.233h-1.667l-3.966-4.1h-.05v4.1h-1.134v-12.6h1.134v8.317z"/>
    </g>
</svg>
